<?xml version="1.0" standalone="no"?>
<!DOCTYPE svg PUBLIC "-//W3C//DTD SVG 20010904//EN"
 "http://www.w3.org/TR/2001/REC-SVG-20010904/DTD/svg10.dtd">
<svg version="1.0" xmlns="http://www.w3.org/2000/svg"
 width="700.000000pt" height="700.000000pt" viewBox="0 0 700.000000 700.000000"
 preserveAspectRatio="xMidYMid meet">
<metadata>
Created by potrace 1.14, written by Peter Selinger 2001-2017
</metadata>
<g transform="translate(0.000000,700.000000) scale(0.100000,-0.100000)"
fill="#000000" stroke="none">
<path d="M3219 6926 c-2 -2 -35 -7 -74 -11 -38 -3 -79 -8 -90 -10 -11 -3 -38
-7 -60 -10 -325 -45 -675 -153 -984 -302 -451 -219 -866 -548 -1182 -939 -250
-307 -449 -669 -581 -1054 -38 -110 -102 -342 -113 -412 -3 -18 -8 -44 -10
-58 -10 -50 -13 -66 -24 -140 -6 -41 -13 -93 -17 -115 -13 -91 -12 -640 1
-745 7 -58 16 -127 20 -155 3 -27 8 -57 10 -65 2 -8 7 -30 10 -47 12 -76 66
-287 100 -398 176 -573 543 -1139 996 -1535 41 -36 76 -67 79 -70 3 -3 41 -33
85 -68 44 -34 85 -66 91 -71 27 -23 256 -171 324 -210 104 -60 316 -162 435
-209 237 -94 565 -181 787 -208 24 -2 53 -7 65 -9 90 -19 537 -27 708 -12 117
10 151 14 260 33 50 8 106 17 125 20 19 3 49 9 65 14 17 5 44 12 60 14 69 12
318 91 449 142 448 177 829 427 1166 764 295 294 482 553 664 917 170 340 296
764 331 1112 4 35 10 98 15 140 8 77 5 549 -3 586 -3 11 -8 49 -12 85 -5 54
-23 172 -40 265 -1 11 -11 52 -20 90 -9 39 -18 77 -20 85 -12 56 -78 276 -95
315 -4 11 -20 51 -34 88 -166 433 -429 833 -782 1191 -438 445 -1071 791
-1688 921 -146 31 -163 34 -291 50 -33 3 -71 9 -85 12 -29 6 -635 15 -641 9z
m522 -150 c53 -4 104 -8 115 -10 10 -2 48 -7 84 -11 55 -6 110 -16 290 -51
272 -54 657 -206 940 -372 812 -477 1399 -1314 1564 -2227 3 -16 8 -39 10 -51
2 -12 7 -45 11 -74 4 -29 8 -62 10 -72 13 -65 20 -201 20 -393 0 -192 -10
-408 -20 -425 -1 -3 -6 -32 -10 -65 -16 -140 -73 -384 -131 -560 -161 -490
-423 -914 -799 -1290 -182 -183 -323 -298 -530 -434 -385 -253 -881 -440
-1315 -496 -30 -4 -63 -9 -73 -11 -106 -19 -538 -26 -717 -11 -51 5 -96 10
-100 12 -3 2 -30 6 -60 9 -54 6 -140 22 -274 51 -253 54 -591 185 -848 327
-83 46 -250 147 -258 157 -3 3 -27 22 -55 40 -369 254 -734 664 -968 1085
-174 313 -315 711 -362 1021 -3 22 -10 67 -15 100 -23 145 -33 290 -32 480 0
214 8 315 43 535 44 274 148 611 267 859 104 218 267 478 418 666 165 205 425
450 648 609 391 280 897 491 1343 562 19 3 45 8 57 10 11 2 46 7 76 10 30 3
66 7 80 10 14 2 79 7 145 10 66 4 121 7 122 8 4 4 233 -2 324 -8z"/>
<path d="M3305 6611 l-40 -7 37 -7 c22 -5 46 -19 58 -35 l22 -27 -7 30 c-10
47 -14 55 -22 54 -4 -1 -26 -5 -48 -8z"/>
<path d="M3137 6602 c-36 -3 -38 -5 -24 -20 15 -17 20 -55 32 -234 5 -79 4
-87 -15 -101 -18 -13 -14 -14 47 -10 88 5 101 10 80 26 -9 6 -19 30 -21 52 -6
50 -19 255 -18 275 0 16 -13 17 -81 12z"/>
<path d="M3780 6599 c0 -4 5 -11 10 -14 10 -6 6 -77 -6 -140 -3 -11 -7 -45
-10 -75 -6 -51 -4 -59 21 -88 28 -33 74 -62 97 -62 8 0 7 4 -4 10 -26 15 -38
105 -24 175 2 11 9 53 16 93 6 39 16 72 21 72 5 0 9 4 9 8 0 5 -29 13 -65 18
-36 6 -65 7 -65 3z"/>
<path d="M2920 6560 c-8 -5 -18 -6 -22 -4 -19 12 -5 -10 22 -36 l31 -29 -7 37
c-8 45 -7 43 -24 32z"/>
<path d="M4064 6551 c7 -9 16 -23 19 -31 4 -12 6 -11 6 3 1 9 6 17 11 17 24 0
7 18 -20 22 -27 4 -28 3 -16 -11z"/>
<path d="M2838 6553 c7 -3 16 -2 19 1 4 3 -2 6 -13 5 -11 0 -14 -3 -6 -6z"/>
<path d="M2775 6541 c-60 -25 -109 -103 -107 -173 2 -103 82 -179 185 -177
l42 1 -35 8 c-46 11 -76 48 -96 117 -30 105 -18 198 29 221 26 13 11 14 -18 3z"/>
<path d="M4240 6506 c5 -15 9 -30 8 -34 -1 -7 11 -33 107 -239 24 -50 46 -101
50 -112 10 -33 19 -25 37 35 l17 57 -66 143 c-59 130 -69 145 -97 153 -17 5
-39 12 -49 16 -15 6 -16 4 -7 -19z"/>
<path d="M3317 6457 c-14 -21 -13 -24 4 -35 17 -11 19 -9 17 23 -2 19 -4 35
-4 35 -1 0 -9 -10 -17 -23z"/>
<path d="M2440 6440 l-25 -6 27 -7 c77 -20 153 -260 101 -320 -18 -21 -18 -21
17 0 66 40 90 135 55 219 -33 80 -110 131 -175 114z"/>
<path d="M4503 6425 c7 -13 14 -20 15 -15 2 6 16 10 30 11 25 0 25 1 -8 14
-48 19 -50 18 -37 -10z"/>
<path d="M2293 6392 c-47 -19 -63 -32 -41 -32 9 0 19 -8 23 -17 40 -101 95
-265 95 -282 0 -11 -5 -21 -12 -21 -6 0 -8 -3 -5 -6 7 -8 127 34 142 49 7 7 6
8 -2 3 -21 -12 -39 21 -94 173 -29 83 -56 151 -59 150 -3 0 -24 -8 -47 -17z"/>
<path d="M4654 6381 c11 -13 16 -27 12 -38 -49 -130 -113 -266 -132 -276 -20
-11 -16 -14 51 -43 67 -28 72 -29 60 -10 -12 19 -8 35 46 161 33 77 65 143 71
146 6 4 18 5 27 1 39 -13 -1 9 -73 42 -62 28 -75 32 -62 17z"/>
<path d="M2945 6370 c-44 -10 -70 -18 -59 -19 34 -2 66 -110 42 -139 -11 -13
-8 -12 19 1 18 10 43 17 57 17 27 0 26 -3 8 78 -9 38 -8 46 9 63 10 10 16 19
12 18 -5 -1 -44 -9 -88 -19z"/>
<path d="M2071 6291 c-66 -34 -72 -39 -49 -44 20 -5 37 -31 86 -132 60 -122
75 -175 50 -175 -6 0 -9 -2 -6 -5 3 -4 35 9 71 26 63 31 65 34 46 47 -11 8
-45 67 -76 131 -76 159 -74 155 -55 175 22 22 18 20 -67 -23z"/>
<path d="M3397 6300 c-16 -16 -43 -34 -60 -39 -30 -9 -28 -10 17 -8 47 2 50 3
62 40 7 20 12 37 11 37 -1 0 -15 -13 -30 -30z"/>
<path d="M4892 6273 c9 -10 14 -29 13 -43 -2 -14 -6 -61 -9 -105 -8 -94 -16
-181 -21 -212 -2 -13 -1 -23 3 -23 16 0 82 55 83 69 0 9 2 30 3 46 2 17 6 66
10 110 5 56 12 84 23 92 9 7 15 14 12 16 -12 10 -120 67 -125 67 -4 0 0 -8 8
-17z"/>
<path d="M4142 6194 c-22 -11 -21 -12 20 -22 34 -8 40 -8 27 1 -9 7 -18 17
-20 23 -3 7 -11 6 -27 -2z"/>
<path d="M1793 6128 c-18 -4 -35 -13 -38 -18 -4 -6 -3 -9 2 -8 36 9 94 -59 96
-114 1 -19 9 -37 18 -43 9 -5 37 -25 63 -43 55 -39 98 -43 146 -13 l35 21 -29
0 c-16 0 -48 14 -75 34 -57 41 -69 45 -105 35 -28 -8 -28 -8 -10 12 11 13 19
36 19 60 0 65 -51 97 -122 77z"/>
<path d="M5156 6126 c3 -8 1 -24 -5 -35 -11 -19 -10 -19 16 -6 14 8 30 12 35
9 4 -3 8 -1 8 5 0 6 -13 17 -30 26 -25 13 -29 13 -24 1z"/>
<path d="M1646 6044 c-41 -29 -45 -34 -25 -34 27 -1 28 -2 123 -152 50 -79 66
-113 61 -128 -5 -17 3 -14 56 20 69 45 81 54 57 45 -22 -9 -34 6 -128 154 -46
72 -86 131 -89 130 -3 -1 -28 -16 -55 -35z"/>
<path d="M5315 6018 c5 -20 -10 -45 -82 -139 -49 -62 -99 -119 -111 -125 -23
-11 -22 -13 39 -60 34 -26 59 -41 54 -33 -15 23 -5 51 39 104 50 60 53 65 109
137 24 32 47 56 51 53 20 -15 -16 17 -57 49 -45 36 -48 37 -42 14z"/>
<path d="M5472 5892 c10 -20 17 -47 15 -59 -6 -31 7 -29 21 2 17 37 16 40 -22
68 l-33 26 19 -37z"/>
<path d="M1447 5885 c-38 -26 -53 -45 -18 -23 15 9 24 8 45 -6 36 -23 68 -76
63 -104 -3 -17 -1 -20 9 -11 20 16 48 3 89 -43 30 -32 36 -46 32 -71 l-4 -31
28 32 c59 66 24 162 -59 162 -9 0 -29 -7 -44 -14 l-28 -15 15 29 c21 41 19 73
-8 98 -31 29 -74 28 -120 -3z"/>
<path d="M1330 5789 c-31 -27 -38 -38 -24 -34 18 4 35 -9 90 -73 145 -164 150
-172 122 -200 -22 -22 -2 -13 23 11 14 12 44 39 68 59 32 27 37 35 20 31 -19
-5 -32 5 -76 53 -29 32 -51 65 -48 72 3 8 0 10 -6 6 -6 -4 -14 -2 -18 3 -14
23 -95 113 -100 113 -3 0 -26 -19 -51 -41z"/>
<path d="M5380 5782 c-8 -4 -15 -17 -16 -29 -1 -29 0 -29 26 7 21 30 19 35
-10 22z"/>
<path d="M5630 5772 c11 -22 4 -31 -92 -129 -106 -108 -134 -128 -155 -111
-30 24 -9 -4 48 -63 34 -35 56 -56 50 -47 -9 11 -9 22 -3 35 17 31 103 104
114 97 7 -4 8 -2 4 5 -5 7 15 33 53 69 34 32 61 62 61 68 0 5 -21 30 -46 54
-30 29 -42 37 -34 22z"/>
<path d="M1170 5638 c-27 -31 -39 -53 -32 -56 7 -2 9 -9 6 -14 -4 -6 -3 -8 3
-5 9 5 52 -30 186 -148 26 -24 49 -52 50 -64 1 -18 6 -15 39 21 56 63 61 74
33 73 -14 0 -62 34 -134 95 -99 84 -112 98 -108 123 2 15 3 27 3 27 -1 0 -21
-23 -46 -52z"/>
<path d="M5748 5635 c3 -19 -3 -34 -24 -57 -36 -38 -78 -60 -98 -52 -12 4 -15
2 -10 -9 3 -8 -6 -38 -20 -66 -38 -74 -35 -119 11 -162 20 -18 32 -27 25 -18
-15 20 -11 47 19 117 19 44 21 57 12 82 -10 27 -10 29 7 20 47 -25 109 0 125
50 8 26 -10 83 -34 104 -17 16 -18 15 -13 -9z"/>
<path d="M5260 5621 c0 -4 11 -14 25 -21 14 -7 25 -17 25 -22 0 -4 18 4 40 18
22 15 40 28 40 29 0 2 -16 -2 -36 -8 -26 -8 -43 -8 -65 0 -16 6 -29 8 -29 4z"/>
<path d="M960 5393 c-14 -16 -32 -37 -40 -47 -14 -18 -14 -19 7 -7 14 7 29 8
40 2 10 -4 34 -13 53 -19 19 -6 88 -27 153 -47 65 -20 121 -34 124 -32 2 3 -6
26 -20 52 l-24 47 -109 34 c-162 50 -156 50 -184 17z"/>
<path d="M5866 5377 c-30 -30 -32 -44 -25 -196 2 -53 -1 -66 -16 -77 -23 -17
-44 -18 -65 -1 -9 6 -5 2 8 -10 43 -42 130 -21 150 36 6 17 8 52 5 78 -14 123
-2 163 51 163 34 0 5 18 -41 26 -36 5 -45 3 -67 -19z"/>
<path d="M6041 5289 c0 -15 -11 -39 -23 -54 l-21 -27 36 23 c21 14 32 28 27
34 -4 5 -10 19 -13 30 -4 16 -5 15 -6 -6z"/>
<path d="M5690 5259 c-19 -17 -30 -28 -24 -25 7 3 18 -10 27 -32 l16 -37 -1
35 c0 19 5 47 11 63 6 15 9 27 8 27 -1 0 -18 -14 -37 -31z"/>
<path d="M1110 5216 c0 -2 8 -10 18 -17 15 -13 16 -12 3 4 -13 16 -21 21 -21
13z"/>
<path d="M4333 5165 c-212 -54 -421 -207 -562 -410 -110 -160 -248 -426 -340
-658 -55 -139 -122 -335 -211 -614 -33 -106 -66 -194 -73 -194 -79 -8 -333 96
-477 194 -149 103 -253 307 -251 497 1 56 3 71 22 170 14 68 91 325 121 400
58 149 155 314 253 435 94 116 87 143 -40 147 -74 3 -71 4 -170 -117 -104
-127 -216 -338 -283 -535 -43 -125 -97 -335 -108 -415 -24 -187 7 -439 70
-562 34 -68 134 -205 194 -267 97 -100 326 -236 496 -295 32 -11 60 -22 63
-24 2 -2 -10 -46 -26 -98 -236 -751 -255 -819 -246 -876 11 -77 83 -133 168
-133 35 0 113 27 153 53 60 40 90 107 118 262 6 31 9 47 26 130 15 77 49 256
55 295 19 117 58 306 64 313 5 5 58 10 118 12 196 6 305 23 459 69 358 108
730 393 938 719 105 164 189 376 224 567 28 146 24 388 -8 514 -44 172 -131
287 -281 373 -125 71 -301 90 -466 48z m227 -367 c154 -38 276 -161 310 -314
13 -57 16 -190 6 -251 -4 -24 -7 -45 -7 -48 0 -3 -13 -43 -30 -91 -58 -165
-145 -298 -291 -443 -234 -234 -479 -350 -843 -398 -55 -7 -283 -9 -290 -2 -2
2 9 70 25 150 16 80 31 159 34 175 39 219 111 448 196 619 76 155 146 259 245
363 154 162 279 230 475 255 37 5 119 -2 170 -15z"/>
<path d="M6130 5168 c0 -24 -16 -37 -132 -109 -111 -69 -134 -80 -150 -70 -27
17 -22 3 28 -74 26 -38 44 -61 40 -50 -3 11 -2 26 3 33 4 7 64 48 132 91 102
64 128 76 147 70 24 -9 24 -9 -13 50 -6 9 -21 32 -33 51 -22 35 -22 35 -22 8z"/>
<path d="M1185 5129 c0 -21 3 -25 13 -16 7 5 17 18 22 27 7 12 4 16 -13 16
-17 0 -22 -6 -22 -27z"/>
<path d="M755 5079 c30 -49 63 -84 80 -85 11 -1 43 -4 70 -8 28 -4 75 -9 105
-12 32 -3 60 -11 67 -20 9 -13 16 -8 39 33 15 26 34 56 43 66 14 17 13 17 -13
3 -16 -8 -36 -13 -45 -11 -9 2 -48 6 -85 10 -37 3 -82 8 -100 11 -17 2 -58 7
-90 10 -33 3 -64 8 -69 11 -6 4 -7 1 -2 -8z"/>
<path d="M6220 4954 l-35 -13 32 0 c19 -1 44 -12 63 -28 l32 -27 -21 42 c-12
23 -25 41 -29 41 -4 -1 -23 -7 -42 -15z"/>
<path d="M890 4883 c0 -6 8 -17 18 -24 16 -13 16 -13 2 6 -8 11 -16 22 -17 24
-2 2 -3 0 -3 -6z"/>
<path d="M6316 4863 c2 -3 -61 -37 -139 -75 -105 -52 -148 -68 -168 -64 l-27
5 31 -64 31 -64 21 23 c11 12 82 52 158 89 l137 66 -16 38 c-9 21 -19 41 -23
44 -4 4 -7 4 -5 2z"/>
<path d="M598 4794 c-16 -35 -16 -35 3 -18 10 9 34 17 54 18 19 0 35 2 35 3 0
2 -71 33 -74 33 0 -1 -8 -17 -18 -36z"/>
<path d="M930 4828 c0 -3 6 -18 14 -33 8 -15 12 -39 10 -53 -6 -30 -5 -30 25
20 20 34 20 36 2 31 -12 -3 -24 3 -35 18 -9 13 -16 21 -16 17z"/>
<path d="M6374 4704 c-1 -28 -8 -52 -20 -65 -18 -20 -16 -20 18 2 43 27 44 32
20 76 l-17 32 -1 -45z"/>
<path d="M864 4711 c15 -16 30 -40 34 -55 l7 -26 11 34 c10 34 10 34 -34 54
l-45 21 27 -28z"/>
<path d="M540 4662 c0 -98 68 -183 156 -195 66 -9 157 33 185 85 12 21 12 21
-16 -1 -69 -53 -257 16 -304 112 l-21 42 0 -43z"/>
<path d="M6445 4553 c-6 -17 -38 -63 -73 -102 -54 -60 -71 -72 -120 -87 -66
-20 -92 -20 -103 -2 -13 20 -11 9 14 -69 20 -61 25 -69 34 -53 13 20 130 63
146 53 5 -3 7 -2 4 4 -4 6 23 42 60 82 52 57 68 69 79 60 18 -15 18 -10 -5 53
-11 29 -21 62 -23 73 -3 16 -6 13 -13 -12z"/>
<path d="M6541 4292 c-1 -7 -11 -17 -23 -22 -17 -6 -19 -9 -6 -9 10 -1 26 -11
38 -23 l20 -22 -9 29 c-18 58 -19 60 -20 47z"/>
<path d="M6054 2548 c-11 -13 -26 -32 -34 -42 -14 -17 -13 -18 7 -12 47 15
159 -42 136 -69 -5 -5 0 -3 11 5 10 8 28 16 41 17 31 4 92 -23 118 -53 l22
-26 6 29 c19 100 -81 164 -151 95 l-28 -28 -5 40 c-3 22 -14 46 -23 53 -28 21
-78 16 -100 -9z"/>
<path d="M632 2428 c9 -26 32 -52 26 -29 -2 5 5 16 15 23 16 12 14 14 -17 24
l-34 10 10 -28z"/>
<path d="M922 2420 c-4 -3 -30 -30 -59 -61 -29 -31 -54 -54 -57 -51 -4 3 -6 0
-6 -6 0 -23 -53 -72 -71 -67 -15 5 -14 -3 9 -59 24 -59 28 -63 37 -43 5 12 14
27 20 33 41 45 203 221 217 235 15 16 13 17 -34 21 -27 1 -53 1 -56 -2z"/>
<path d="M5970 2384 c-25 -56 -25 -67 -2 -53 14 9 46 0 159 -46 134 -54 161
-72 147 -98 -5 -8 -4 -9 3 -2 6 6 15 24 21 40 5 17 17 47 26 68 16 37 16 38
-3 27 -16 -8 -49 1 -171 50 -83 33 -153 60 -155 60 -3 0 -15 -21 -25 -46z"/>
<path d="M5909 2253 c-21 -43 -23 -50 -7 -29 10 12 21 17 32 13 14 -6 15 -4 5
16 -6 12 -13 23 -14 25 -1 1 -8 -10 -16 -25z"/>
<path d="M1110 2198 c0 -15 -3 -28 -7 -30 -11 -4 -193 -275 -193 -285 0 -5 27
-5 60 1 33 5 58 12 55 14 -2 2 30 53 71 112 41 60 74 111 74 114 0 3 -13 27
-30 53 -27 42 -30 44 -30 21z"/>
<path d="M5812 2083 c-10 -21 -29 -56 -42 -78 -12 -22 -16 -34 -9 -27 21 20
38 15 140 -43 53 -30 107 -57 120 -59 44 -7 117 33 141 78 10 18 9 18 -13 2
-37 -25 -62 -20 -177 40 -123 64 -145 81 -139 106 8 28 1 21 -21 -19z"/>
<path d="M820 1999 c16 -28 27 -31 32 -6 3 17 -1 22 -19 23 -19 2 -21 -1 -13
-17z"/>
<path d="M1270 1932 c0 -7 -178 -122 -257 -166 -7 -4 -22 -2 -33 4 -15 8 -10
-4 20 -51 22 -34 40 -67 41 -73 1 -6 4 0 8 14 6 25 59 64 203 151 56 34 70 39
88 29 17 -9 15 -2 -13 42 -32 49 -57 71 -57 50z"/>
<path d="M5603 1778 c-57 -76 -60 -82 -35 -69 19 10 36 0 142 -79 66 -50 120
-97 120 -105 0 -32 20 -21 64 36 26 33 39 56 29 51 -26 -13 -37 -8 -153 81
-118 90 -131 103 -123 123 10 27 -5 14 -44 -38z"/>
<path d="M5969 1753 c10 -35 5 -71 -15 -101 -26 -40 0 -16 30 27 l28 40 -22
31 c-26 37 -31 38 -21 3z"/>
<path d="M1275 1733 c-46 -24 -66 -45 -86 -88 -21 -46 -24 -88 -8 -134 12 -33
30 -44 22 -12 -12 45 80 156 161 195 19 9 50 16 70 16 30 0 40 -5 56 -32 25
-41 19 -79 -19 -127 -89 -112 -189 -152 -248 -100 l-28 24 25 -28 c49 -57 114
-74 189 -51 118 35 165 171 96 276 -47 70 -157 100 -230 61z"/>
<path d="M5530 1677 c0 -9 -13 -23 -30 -32 -40 -21 -38 -28 2 -10 28 11 38 11
65 0 18 -8 33 -13 33 -12 0 1 -16 17 -35 36 -25 24 -35 29 -35 18z"/>
<path d="M5419 1574 c-89 -144 43 -320 206 -274 54 15 80 39 36 32 -47 -7 -94
15 -150 69 -52 50 -92 119 -87 149 1 8 8 25 14 38 20 36 6 25 -19 -14z"/>
<path d="M1630 1511 c0 -24 -11 -41 -93 -136 -91 -106 -114 -126 -134 -119
-18 6 -16 3 57 -59 14 -12 34 -29 45 -37 18 -14 19 -14 7 2 -18 22 -9 44 36
94 20 22 56 63 79 90 23 27 53 62 67 79 14 16 22 32 18 35 -4 3 -24 21 -44 39
-36 33 -38 34 -38 12z"/>
<path d="M5715 1501 c15 -17 20 -37 19 -74 0 -29 1 -45 4 -37 2 8 13 24 23 36
19 20 18 21 -23 60 -24 21 -34 28 -23 15z"/>
<path d="M1760 1395 c-1 -54 -88 -137 -118 -112 -13 10 -14 8 -8 -11 5 -15 1
-37 -10 -60 -9 -20 -19 -57 -22 -82 -3 -42 -1 -47 39 -85 24 -22 37 -32 30
-22 -15 19 -11 52 13 128 12 39 12 51 1 71 l-12 25 43 -5 c36 -4 46 -1 68 21
35 35 35 86 1 124 -22 25 -24 26 -25 8z"/>
<path d="M5090 1270 c0 -5 6 -10 14 -10 7 0 19 -7 26 -15 21 -25 32 -17 14 10
-16 24 -54 35 -54 15z"/>
<path d="M4983 1193 c-11 -28 -13 -47 -7 -73 13 -51 45 -62 166 -61 63 1 105
-3 114 -10 19 -16 18 -58 -3 -83 -17 -20 -17 -20 0 -7 40 32 54 88 32 131 -24
46 -49 54 -157 51 -94 -2 -97 -1 -114 23 -9 15 -14 35 -11 46 8 33 -3 23 -20
-17z"/>
<path d="M2055 1143 c-22 -14 -41 -27 -42 -27 -1 -1 -4 -21 -8 -46 -3 -25 -8
-56 -10 -70 -2 -14 -7 -50 -10 -80 -7 -56 -20 -84 -36 -74 -5 3 -9 3 -9 1 0
-3 95 -64 134 -85 4 -2 1 6 -7 19 -15 24 -15 44 -3 134 4 28 8 64 10 80 5 36
16 122 21 153 2 12 3 22 2 22 -1 0 -20 -12 -42 -27z"/>
<path d="M4830 1120 l-35 -19 40 -1 c22 0 51 -8 65 -17 23 -16 23 -15 -4 20
-16 20 -29 37 -30 37 0 -1 -17 -9 -36 -20z"/>
<path d="M4686 1045 c-49 -27 -55 -34 -36 -37 18 -2 38 -32 94 -140 64 -123
70 -139 58 -158 -11 -19 -3 -17 58 16 65 34 69 38 49 48 -25 13 -92 133 -82
150 3 6 2 8 -2 3 -10 -9 -87 132 -79 145 7 11 6 11 -60 -27z"/>
<path d="M2301 1039 c9 -19 4 -39 -37 -133 -65 -150 -76 -169 -105 -176 -24
-6 -23 -6 6 -14 17 -4 51 -18 77 -31 l47 -24 -8 23 c-9 22 -2 43 73 211 37 85
40 89 67 95 22 6 23 7 4 12 -11 3 -46 18 -78 32 -56 25 -57 25 -46 5z"/>
<path d="M4894 998 c3 -10 -2 -24 -10 -33 -14 -13 -13 -15 10 -15 14 0 26 -5
26 -12 0 -6 3 -9 6 -6 3 4 -4 23 -16 45 -12 21 -19 30 -16 21z"/>
<path d="M4580 984 c-23 -12 -23 -13 -5 -20 11 -4 30 -16 43 -28 l23 -20 -17
39 c-9 22 -17 40 -18 41 0 0 -12 -5 -26 -12z"/>
<path d="M1800 980 c-8 -5 -26 -10 -40 -10 l-25 0 30 -20 c35 -23 46 -25 39
-6 -3 7 2 21 11 30 18 18 9 21 -15 6z"/>
<path d="M4443 939 c-77 -49 -96 -182 -37 -256 42 -52 88 -73 154 -72 l55 1
-39 11 c-49 15 -89 64 -117 142 -27 76 -26 130 1 167 25 33 24 33 -17 7z"/>
<path d="M5090 920 c21 -29 51 -55 36 -31 -5 8 0 14 13 18 29 7 26 18 -6 21
-15 1 -32 7 -37 12 -22 22 -26 8 -6 -20z"/>
<path d="M5030 884 c0 -12 -11 -37 -24 -57 l-25 -36 35 16 c35 17 45 50 24 83
-8 12 -10 11 -10 -6z"/>
<path d="M4257 877 c-36 -12 -36 -12 -14 -23 19 -9 26 -7 40 13 10 13 17 23
15 22 -2 0 -20 -6 -41 -12z"/>
<path d="M2865 824 c-16 -8 -38 -26 -47 -39 -30 -40 -14 -77 68 -161 41 -41
74 -82 74 -91 0 -9 -10 -27 -21 -40 l-22 -22 23 4 c29 6 48 22 66 58 24 45 10
77 -66 153 -47 48 -68 76 -65 89 2 11 4 23 4 27 1 4 8 14 17 22 19 20 8 20
-31 0z"/>
<path d="M3995 815 c-27 -7 -42 -14 -33 -14 9 -1 23 -10 31 -21 7 -11 81 -67
163 -125 82 -58 158 -113 168 -121 18 -16 19 -15 12 22 -4 22 -9 46 -11 54 -2
8 -4 20 -4 26 -1 12 -258 196 -271 193 -3 -1 -27 -7 -55 -14z"/>
<path d="M3013 770 c6 -22 12 -38 13 -37 0 1 4 14 8 29 5 21 2 30 -12 37 -18
9 -18 8 -9 -29z"/>
<path d="M3825 790 c-38 -7 -38 -7 -8 -9 20 0 42 -11 61 -31 l30 -29 -10 39
c-6 22 -16 39 -22 39 -6 -1 -29 -5 -51 -9z"/>
<path d="M3158 770 c-65 -35 -103 -101 -99 -174 4 -68 42 -126 100 -153 20 -9
41 -19 46 -22 6 -3 -4 9 -22 27 -44 44 -52 117 -27 237 8 41 49 93 76 98 18 3
16 4 -7 5 -16 1 -47 -8 -67 -18z"/>
<path d="M3336 746 c20 -20 38 -36 40 -36 2 0 4 12 4 28 0 21 -5 27 -22 28
-13 0 -31 4 -41 8 -9 5 -1 -8 19 -28z"/>
<path d="M3436 759 c11 -12 14 -50 14 -167 0 -145 -1 -152 -22 -166 -21 -15
-17 -16 62 -16 73 0 81 2 65 14 -17 12 -19 28 -18 166 0 130 3 155 17 165 9 7
16 14 16 16 0 2 -33 4 -74 4 -67 0 -73 -2 -60 -16z"/>
<path d="M3634 769 c-16 -6 -16 -8 -2 -8 21 -1 29 -44 43 -216 4 -44 9 -83 11
-87 3 -4 -5 -17 -17 -29 l-21 -21 39 6 c21 3 58 5 82 6 42 0 43 0 23 18 -15
12 -23 33 -26 72 -3 30 -8 89 -12 130 -4 41 -8 82 -10 90 -1 8 -3 23 -3 33 -1
15 -9 18 -44 16 -24 -2 -52 -6 -63 -10z"/>
<path d="M4695 731 c2 -10 -3 -31 -11 -46 -8 -15 -14 -29 -14 -31 0 -3 46 14
58 22 5 3 -26 74 -32 74 -3 0 -3 -8 -1 -19z"/>
<path d="M2432 660 c-21 -12 -45 -16 -70 -13 -44 6 -41 2 14 -20 l40 -15 28
34 c15 19 26 33 24 33 -2 -1 -18 -9 -36 -19z"/>
<path d="M3850 651 c0 -13 -9 -25 -22 -31 l-23 -9 22 0 c12 -1 27 -9 32 -18 8
-14 9 -7 5 27 -5 48 -14 67 -14 31z"/>
<path d="M2753 563 c-8 -40 -7 -50 3 -46 7 2 27 -3 46 -13 l33 -17 -27 26
c-15 14 -30 38 -33 54 -4 15 -8 32 -9 38 -1 5 -7 -14 -13 -42z"/>
<path d="M3941 499 c-9 -20 -28 -38 -55 -50 l-41 -19 45 4 c25 2 48 5 51 5 3
1 6 7 6 14 0 6 3 27 7 45 9 40 5 41 -13 1z"/>
<path d="M3336 482 c-8 -16 -23 -33 -33 -37 -15 -7 -13 -9 12 -14 29 -6 30 -5
36 34 8 51 4 55 -15 17z"/>
<path d="M4063 497 c3 -9 2 -19 -3 -22 -18 -11 -10 -23 10 -18 28 8 30 15 7
37 -17 16 -19 16 -14 3z"/>
</g>
</svg>
