<svg xmlns="http://www.w3.org/2000/svg" xmlns:xlink="http://www.w3.org/1999/xlink" width="500" zoomAndPan="magnify" viewBox="0 0 375 374.999991" height="500" preserveAspectRatio="xMidYMid meet" version="1.0"><defs><g/><clipPath id="928ebaa305"><path d="M 3.535156 3.535156 L 371.785156 3.535156 L 371.785156 371.785156 L 3.535156 371.785156 Z M 3.535156 3.535156 " clip-rule="nonzero"/></clipPath><clipPath id="c662015a33"><path d="M 117 97.003906 L 274 97.003906 L 274 277.996094 L 117 277.996094 Z M 117 97.003906 " clip-rule="nonzero"/></clipPath></defs><g clip-path="url(#928ebaa305)"><path fill="#000000" d="M 187.660156 3.535156 C 86.070312 3.535156 3.535156 86.070312 3.535156 187.660156 C 3.535156 289.25 86.070312 371.785156 187.660156 371.785156 C 289.25 371.785156 371.785156 289.25 371.785156 187.660156 C 371.785156 86.070312 289.25 3.535156 187.660156 3.535156 Z M 187.660156 11.539062 C 285.03125 11.539062 363.78125 90.289062 363.78125 187.660156 C 363.78125 285.03125 285.03125 363.78125 187.660156 363.78125 C 90.289062 363.78125 11.539062 285.03125 11.539062 187.660156 C 11.539062 90.289062 90.289062 11.539062 187.660156 11.539062 Z M 187.660156 11.539062 " fill-opacity="1" fill-rule="nonzero"/></g><g clip-path="url(#c662015a33)"><path fill="#000000" d="M 129.503906 160.625 C 129.503906 166.839844 130.78125 172.417969 133.34375 177.351562 C 135.902344 182.289062 139.191406 186.039062 143.214844 188.597656 C 147.238281 191.15625 151.167969 193.257812 155.007812 194.902344 C 158.847656 196.550781 162.046875 197.738281 164.605469 198.46875 L 168.71875 199.019531 L 169.265625 198.742188 L 172.832031 187.5 C 176.121094 176.894531 179.140625 167.847656 181.882812 160.351562 C 184.625 152.855469 188.1875 144.8125 192.578125 136.21875 C 196.964844 127.625 201.351562 120.679688 205.738281 115.375 C 210.128906 110.074219 215.519531 105.6875 221.917969 102.214844 C 228.316406 98.738281 234.992188 97.003906 241.9375 97.003906 C 250.164062 97.003906 257.476562 99.929688 263.878906 105.777344 C 270.277344 111.628906 273.566406 121.5 273.75 135.394531 C 273.75 149.65625 269.820312 163.367188 261.957031 176.53125 C 254.097656 189.695312 243.308594 200.390625 229.597656 208.617188 C 215.886719 216.84375 201.441406 220.957031 186.269531 220.957031 C 181.515625 220.957031 179.140625 221.140625 179.140625 221.503906 L 177.21875 231.378906 C 176.121094 237.777344 174.84375 244.816406 173.378906 252.492188 C 171.917969 260.171875 170.910156 265.109375 170.363281 267.300781 C 169.449219 271.691406 167.074219 274.707031 163.234375 276.351562 C 161.222656 277.449219 158.9375 277.996094 156.378906 277.996094 C 150.710938 277.449219 147.875 274.433594 147.875 268.945312 C 147.875 267.117188 152.902344 250.390625 162.960938 218.761719 L 161.589844 218.214844 C 160.675781 217.847656 159.394531 217.390625 157.75 216.84375 C 156.101562 216.292969 154.09375 215.472656 151.714844 214.375 C 149.339844 213.277344 146.960938 212 144.585938 210.535156 C 142.207031 209.074219 139.742188 207.425781 137.179688 205.597656 C 134.621094 203.769531 132.246094 201.484375 130.050781 198.742188 C 127.855469 196 125.753906 193.074219 123.742188 189.96875 C 121.734375 186.859375 120.363281 183.296875 119.628906 179.273438 C 118.898438 175.25 118.351562 170.863281 117.984375 166.109375 C 117.984375 157.335938 120.363281 146.273438 125.113281 132.925781 C 129.867188 119.582031 136.542969 108.613281 145.132812 100.019531 L 148.699219 100.019531 C 152.539062 100.019531 154.457031 100.75 154.457031 102.214844 C 154.457031 103.308594 153.726562 104.589844 152.265625 106.050781 C 144.769531 114.828125 139.191406 124.792969 135.535156 135.945312 C 131.878906 147.097656 129.867188 155.324219 129.503906 160.625 Z M 261.683594 141.976562 C 261.683594 134.296875 259.488281 128.265625 255.101562 123.878906 C 250.714844 119.488281 244.863281 117.203125 237.550781 117.023438 C 228.59375 117.023438 220.183594 120.679688 212.320312 127.992188 C 204.460938 135.304688 197.96875 145.449219 192.851562 158.429688 C 190.292969 164.648438 187.730469 174.609375 185.171875 188.324219 L 182.703125 200.664062 C 185.996094 201.027344 187.824219 201.210938 188.1875 201.210938 C 209.578125 201.210938 227.128906 194.902344 240.839844 182.289062 C 254.554688 169.675781 261.5 156.238281 261.683594 141.976562 Z M 261.683594 141.976562 " fill-opacity="1" fill-rule="nonzero"/></g><g fill="#000000" fill-opacity="1"><g transform="translate(32.432264, 241.320011)"><g><path d="M 0.625 0.953125 L 0.765625 1.328125 C 0.898438 1.546875 1.144531 1.816406 1.5 2.140625 C 1.851562 2.472656 2.390625 2.769531 3.109375 3.03125 C 3.828125 3.300781 4.800781 3.457031 6.03125 3.5 L 17.078125 3.859375 L 22.71875 4 L 10.125 17.59375 C 9.613281 18.175781 9.285156 18.734375 9.140625 19.265625 C 9.003906 19.796875 8.960938 20.253906 9.015625 20.640625 C 9.066406 21.023438 9.117188 21.285156 9.171875 21.421875 L 9.203125 21.515625 L 9.015625 21.59375 L 5.5 13.15625 L 5.6875 13.078125 L 5.734375 13.1875 C 5.773438 13.300781 5.859375 13.441406 5.984375 13.609375 C 6.117188 13.785156 6.289062 13.929688 6.5 14.046875 C 6.71875 14.160156 6.972656 14.175781 7.265625 14.09375 C 7.566406 14.007812 7.921875 13.742188 8.328125 13.296875 L 10.765625 10.65625 L 7.890625 3.765625 L 6.109375 3.6875 C 5.296875 3.664062 4.644531 3.707031 4.15625 3.8125 C 3.664062 3.925781 3.300781 4.078125 3.0625 4.265625 C 2.832031 4.453125 2.6875 4.648438 2.625 4.859375 C 2.5625 5.078125 2.539062 5.269531 2.5625 5.4375 C 2.59375 5.613281 2.617188 5.734375 2.640625 5.796875 L 2.671875 5.859375 L 2.484375 5.9375 L 0.4375 1.03125 Z M 10.921875 10.5 L 16.90625 4.046875 L 8.109375 3.765625 Z M 10.921875 10.5 "/></g></g></g><g fill="#000000" fill-opacity="1"><g transform="translate(42.246852, 264.956539)"><g><path d="M 16.390625 -5.71875 L 4.1875 1.96875 C 3.5625 2.382812 3.210938 2.894531 3.140625 3.5 C 3.066406 4.113281 3.226562 4.734375 3.625 5.359375 L 3.453125 5.46875 L 0.59375 0.953125 L 0.765625 0.84375 C 1.191406 1.519531 1.695312 1.941406 2.28125 2.109375 C 2.875 2.273438 3.472656 2.171875 4.078125 1.796875 L 16.28125 -5.890625 C 16.789062 -6.210938 17.109375 -6.566406 17.234375 -6.953125 C 17.367188 -7.335938 17.398438 -7.710938 17.328125 -8.078125 C 17.253906 -8.441406 17.15625 -8.734375 17.03125 -8.953125 C 16.914062 -9.179688 16.859375 -9.296875 16.859375 -9.296875 L 17.03125 -9.40625 L 20.609375 -3.75 L 12.25 8.46875 L 26.875 6.203125 L 30.703125 12.265625 L 30.515625 12.390625 C 30.515625 12.390625 30.4375 12.285156 30.28125 12.078125 C 30.125 11.867188 29.898438 11.65625 29.609375 11.4375 C 29.316406 11.226562 28.96875 11.101562 28.5625 11.0625 C 28.15625 11.019531 27.679688 11.171875 27.140625 11.515625 L 15.015625 19.15625 C 14.390625 19.570312 14.035156 20.082031 13.953125 20.6875 C 13.878906 21.289062 14.039062 21.90625 14.4375 22.53125 L 14.265625 22.640625 L 9.078125 14.40625 L 9.25 14.296875 C 9.675781 14.972656 10.179688 15.394531 10.765625 15.5625 C 11.359375 15.738281 11.957031 15.640625 12.5625 15.265625 L 26.5 6.484375 L 5.875 9.671875 Z M 16.390625 -5.71875 "/></g></g></g><g fill="#000000" fill-opacity="1"><g transform="translate(57.894712, 289.21138)"><g><path d="M 7.265625 8.265625 C 6.347656 7.234375 5.6875 6.097656 5.28125 4.859375 C 4.882812 3.628906 4.734375 2.375 4.828125 1.09375 C 4.921875 -0.1875 5.25 -1.410156 5.8125 -2.578125 C 6.375 -3.753906 7.160156 -4.785156 8.171875 -5.671875 C 9.179688 -6.554688 10.300781 -7.203125 11.53125 -7.609375 C 12.769531 -8.015625 14.03125 -8.175781 15.3125 -8.09375 C 16.59375 -8.007812 17.816406 -7.6875 18.984375 -7.125 C 20.160156 -6.5625 21.195312 -5.769531 22.09375 -4.75 C 22.976562 -3.738281 23.617188 -2.613281 24.015625 -1.375 C 24.421875 -0.144531 24.582031 1.101562 24.5 2.375 C 24.425781 3.65625 24.109375 4.882812 23.546875 6.0625 C 22.984375 7.238281 22.195312 8.269531 21.1875 9.15625 C 20.15625 10.0625 19.019531 10.710938 17.78125 11.109375 C 16.550781 11.515625 15.300781 11.675781 14.03125 11.59375 C 12.757812 11.507812 11.535156 11.1875 10.359375 10.625 C 9.191406 10.070312 8.160156 9.285156 7.265625 8.265625 Z M 7.46875 8.09375 C 7.644531 8.300781 7.914062 8.535156 8.28125 8.796875 C 8.65625 9.054688 9.128906 9.253906 9.703125 9.390625 C 10.273438 9.535156 10.960938 9.535156 11.765625 9.390625 C 12.566406 9.242188 13.492188 8.882812 14.546875 8.3125 C 15.609375 7.75 16.8125 6.878906 18.15625 5.703125 C 19.457031 4.554688 20.453125 3.5 21.140625 2.53125 C 21.835938 1.5625 22.304688 0.691406 22.546875 -0.078125 C 22.796875 -0.859375 22.894531 -1.546875 22.84375 -2.140625 C 22.789062 -2.742188 22.660156 -3.25 22.453125 -3.65625 C 22.253906 -4.0625 22.066406 -4.367188 21.890625 -4.578125 C 21.691406 -4.796875 21.40625 -5.023438 21.03125 -5.265625 C 20.65625 -5.515625 20.175781 -5.703125 19.59375 -5.828125 C 19.007812 -5.960938 18.3125 -5.960938 17.5 -5.828125 C 16.695312 -5.691406 15.769531 -5.34375 14.71875 -4.78125 C 13.675781 -4.21875 12.503906 -3.363281 11.203125 -2.21875 C 9.859375 -1.039062 8.832031 0.03125 8.125 1 C 7.425781 1.976562 6.957031 2.859375 6.71875 3.640625 C 6.476562 4.429688 6.390625 5.117188 6.453125 5.703125 C 6.515625 6.296875 6.648438 6.785156 6.859375 7.171875 C 7.066406 7.566406 7.269531 7.875 7.46875 8.09375 Z M 7.46875 8.09375 "/></g></g></g><g fill="#000000" fill-opacity="1"><g transform="translate(73.008848, 306.393181)"><g><path d="M 0.984375 0.578125 C 1.617188 1.117188 2.238281 1.394531 2.84375 1.40625 C 3.445312 1.414062 4.019531 1.109375 4.5625 0.484375 L 13.796875 -10.359375 C 14.140625 -10.753906 14.34375 -11.125 14.40625 -11.46875 C 14.46875 -11.820312 14.445312 -12.144531 14.34375 -12.4375 C 14.25 -12.738281 14.117188 -13 13.953125 -13.21875 C 13.796875 -13.445312 13.65625 -13.613281 13.53125 -13.71875 L 13.328125 -13.890625 L 13.453125 -14.046875 L 20.875 -7.71875 C 21.570312 -7.125 22.179688 -6.484375 22.703125 -5.796875 C 23.234375 -5.109375 23.617188 -4.394531 23.859375 -3.65625 C 24.109375 -2.925781 24.175781 -2.191406 24.0625 -1.453125 C 23.945312 -0.722656 23.597656 -0.015625 23.015625 0.671875 C 22.367188 1.421875 21.640625 1.898438 20.828125 2.109375 C 20.023438 2.316406 19.191406 2.316406 18.328125 2.109375 C 17.472656 1.910156 16.648438 1.570312 15.859375 1.09375 C 16.628906 1.820312 17.164062 2.503906 17.46875 3.140625 C 17.769531 3.785156 17.867188 4.492188 17.765625 5.265625 C 17.660156 6.046875 17.367188 6.988281 16.890625 8.09375 C 16.421875 9.269531 16.109375 10.234375 15.953125 10.984375 C 15.804688 11.734375 15.828125 12.359375 16.015625 12.859375 C 16.203125 13.367188 16.550781 13.84375 17.0625 14.28125 L 16.9375 14.4375 L 13.859375 11.8125 C 13.210938 11.257812 12.816406 10.457031 12.671875 9.40625 C 12.535156 8.363281 12.773438 6.929688 13.390625 5.109375 C 13.710938 4.222656 14 3.507812 14.25 2.96875 C 14.507812 2.4375 14.703125 2.003906 14.828125 1.671875 C 14.960938 1.335938 15 1.054688 14.9375 0.828125 C 14.882812 0.597656 14.703125 0.347656 14.390625 0.078125 L 12.453125 -1.578125 L 8.09375 3.546875 C 7.570312 4.148438 7.328125 4.71875 7.359375 5.25 C 7.398438 5.789062 7.742188 6.335938 8.390625 6.890625 L 8.265625 7.046875 L 0.859375 0.734375 Z M 14.453125 -0.171875 C 14.859375 0.171875 15.34375 0.296875 15.90625 0.203125 C 16.46875 0.109375 17.0625 -0.15625 17.6875 -0.59375 C 18.320312 -1.03125 18.9375 -1.597656 19.53125 -2.296875 C 20.125 -2.992188 20.578125 -3.675781 20.890625 -4.34375 C 21.210938 -5.019531 21.367188 -5.640625 21.359375 -6.203125 C 21.359375 -6.765625 21.15625 -7.21875 20.75 -7.5625 L 18.90625 -9.140625 L 12.609375 -1.75 Z M 14.453125 -0.171875 "/></g></g></g><g fill="#000000" fill-opacity="1"><g transform="translate(91.546835, 322.159859)"><g><path d="M 1.0625 0.421875 L 1.40625 0.625 C 1.625 0.726562 1.972656 0.804688 2.453125 0.859375 C 2.941406 0.921875 3.554688 0.847656 4.296875 0.640625 C 5.046875 0.441406 5.925781 0.00390625 6.9375 -0.671875 L 16.140625 -6.8125 L 20.8125 -9.96875 L 18.46875 8.421875 C 18.394531 9.179688 18.453125 9.820312 18.640625 10.34375 C 18.835938 10.863281 19.066406 11.257812 19.328125 11.53125 C 19.597656 11.8125 19.796875 11.992188 19.921875 12.078125 L 20.015625 12.140625 L 19.90625 12.3125 L 12.140625 7.5 L 12.25 7.328125 L 12.34375 7.390625 C 12.445312 7.453125 12.597656 7.515625 12.796875 7.578125 C 13.003906 7.640625 13.222656 7.65625 13.453125 7.625 C 13.691406 7.601562 13.910156 7.46875 14.109375 7.21875 C 14.304688 6.976562 14.441406 6.5625 14.515625 5.96875 L 14.953125 2.40625 L 8.609375 -1.53125 L 7.125 -0.5625 C 6.4375 -0.09375 5.925781 0.320312 5.59375 0.6875 C 5.269531 1.0625 5.066406 1.394531 4.984375 1.6875 C 4.898438 1.976562 4.894531 2.222656 4.96875 2.421875 C 5.050781 2.628906 5.148438 2.796875 5.265625 2.921875 C 5.378906 3.054688 5.46875 3.144531 5.53125 3.1875 L 5.578125 3.21875 L 5.46875 3.390625 L 0.953125 0.59375 Z M 15 2.1875 L 16.09375 -6.546875 L 8.796875 -1.65625 Z M 15 2.1875 "/></g></g></g><g fill="#000000" fill-opacity="1"><g transform="translate(113.265755, 335.32966)"><g><path d="M 1.109375 0.265625 C 1.859375 0.585938 2.535156 0.648438 3.140625 0.453125 C 3.753906 0.253906 4.207031 -0.179688 4.5 -0.859375 L 10.203125 -13.90625 C 10.503906 -14.59375 10.519531 -15.222656 10.25 -15.796875 C 9.988281 -16.378906 9.484375 -16.832031 8.734375 -17.15625 L 8.8125 -17.34375 L 17.953125 -13.34375 L 17.875 -13.15625 C 17.125 -13.488281 16.445312 -13.554688 15.84375 -13.359375 C 15.238281 -13.160156 14.785156 -12.71875 14.484375 -12.03125 L 8.78125 1.015625 C 8.488281 1.691406 8.472656 2.316406 8.734375 2.890625 C 8.992188 3.472656 9.5 3.929688 10.25 4.265625 C 12.03125 5.035156 13.675781 5.304688 15.1875 5.078125 C 16.707031 4.859375 18.046875 4.109375 19.203125 2.828125 L 19.390625 2.90625 L 15.984375 6.984375 L 1.03125 0.453125 Z M 1.109375 0.265625 "/></g></g></g><g fill="#000000" fill-opacity="1"><g transform="translate(132.306825, 343.424013)"><g/></g></g><g fill="#000000" fill-opacity="1"><g transform="translate(145.728496, 347.681237)"><g><path d="M 1.125 0.25 L 2.484375 -6.046875 L 2.6875 -6.015625 L 2.578125 -5.5 C 2.421875 -4.800781 2.441406 -4.070312 2.640625 -3.3125 C 2.847656 -2.550781 3.195312 -1.832031 3.6875 -1.15625 C 4.175781 -0.476562 4.757812 0.0976562 5.4375 0.578125 C 6.125 1.054688 6.875 1.382812 7.6875 1.5625 C 8.75 1.789062 9.628906 1.832031 10.328125 1.6875 C 11.035156 1.550781 11.585938 1.28125 11.984375 0.875 C 12.390625 0.46875 12.65625 0 12.78125 -0.53125 C 12.914062 -1.019531 12.867188 -1.503906 12.640625 -1.984375 C 12.421875 -2.472656 12.09375 -2.960938 11.65625 -3.453125 C 11.226562 -3.953125 10.738281 -4.441406 10.1875 -4.921875 C 9.632812 -5.398438 9.085938 -5.878906 8.546875 -6.359375 C 8.003906 -6.835938 7.535156 -7.300781 7.140625 -7.75 C 6.222656 -8.8125 5.53125 -9.742188 5.0625 -10.546875 C 4.601562 -11.359375 4.394531 -12.109375 4.4375 -12.796875 C 4.476562 -13.492188 4.769531 -14.222656 5.3125 -14.984375 C 5.8125 -15.679688 6.441406 -16.238281 7.203125 -16.65625 C 7.960938 -17.070312 8.785156 -17.34375 9.671875 -17.46875 C 10.566406 -17.59375 11.453125 -17.5625 12.328125 -17.375 C 12.722656 -17.289062 13.101562 -17.171875 13.46875 -17.015625 C 13.832031 -16.867188 14.171875 -16.675781 14.484375 -16.4375 C 14.648438 -16.320312 14.859375 -16.171875 15.109375 -15.984375 C 15.367188 -15.804688 15.628906 -15.65625 15.890625 -15.53125 C 16.160156 -15.40625 16.398438 -15.335938 16.609375 -15.328125 C 16.816406 -15.316406 16.945312 -15.414062 17 -15.625 L 17.015625 -15.71875 L 17.203125 -15.671875 L 16.078125 -10.4375 L 15.890625 -10.484375 C 15.890625 -10.484375 15.90625 -10.613281 15.9375 -10.875 C 15.96875 -11.132812 15.992188 -11.46875 16.015625 -11.875 C 16.035156 -12.289062 16.019531 -12.742188 15.96875 -13.234375 C 15.914062 -13.722656 15.800781 -14.203125 15.625 -14.671875 C 15.457031 -15.140625 15.203125 -15.539062 14.859375 -15.875 C 14.535156 -16.1875 14.15625 -16.453125 13.71875 -16.671875 C 13.28125 -16.890625 12.800781 -17.054688 12.28125 -17.171875 C 11.4375 -17.347656 10.734375 -17.363281 10.171875 -17.21875 C 9.617188 -17.070312 9.191406 -16.800781 8.890625 -16.40625 C 8.585938 -16.007812 8.375 -15.53125 8.25 -14.96875 C 8.09375 -14.226562 8.207031 -13.507812 8.59375 -12.8125 C 8.988281 -12.125 9.640625 -11.335938 10.546875 -10.453125 C 11.347656 -9.703125 12.101562 -9.023438 12.8125 -8.421875 C 13.53125 -7.828125 14.144531 -7.238281 14.65625 -6.65625 C 15.175781 -6.070312 15.546875 -5.425781 15.765625 -4.71875 C 15.992188 -4.007812 16.003906 -3.164062 15.796875 -2.1875 C 15.660156 -1.5625 15.367188 -0.925781 14.921875 -0.28125 C 14.472656 0.363281 13.984375 0.863281 13.453125 1.21875 C 12.878906 1.582031 12.21875 1.828125 11.46875 1.953125 C 10.71875 2.078125 9.929688 2.09375 9.109375 2 C 8.296875 1.914062 7.5 1.734375 6.71875 1.453125 C 5.945312 1.179688 5.234375 0.84375 4.578125 0.4375 C 3.890625 -0.0195312 3.34375 -0.328125 2.9375 -0.484375 C 2.53125 -0.648438 2.21875 -0.71875 2 -0.6875 C 1.789062 -0.65625 1.640625 -0.550781 1.546875 -0.375 C 1.453125 -0.195312 1.378906 0.015625 1.328125 0.265625 L 1.328125 0.28125 Z M 1.125 0.25 "/></g></g></g><g fill="#000000" fill-opacity="1"><g transform="translate(161.67878, 351.175263)"><g><path d="M 10.9375 1.140625 C 9.632812 1.003906 8.429688 0.640625 7.328125 0.046875 C 6.222656 -0.546875 5.265625 -1.3125 4.453125 -2.25 C 3.648438 -3.195312 3.039062 -4.257812 2.625 -5.4375 C 2.207031 -6.613281 2.03125 -7.859375 2.09375 -9.171875 L 2.203125 -10.28125 C 2.398438 -11.5 2.804688 -12.617188 3.421875 -13.640625 C 4.035156 -14.671875 4.789062 -15.550781 5.6875 -16.28125 L 5.75 -16.34375 C 6.769531 -17.175781 7.898438 -17.773438 9.140625 -18.140625 C 10.378906 -18.503906 11.65625 -18.617188 12.96875 -18.484375 C 14.125 -18.367188 15.203125 -18.066406 16.203125 -17.578125 C 17.234375 -17.148438 17.992188 -16.945312 18.484375 -16.96875 C 18.984375 -17 19.273438 -17.21875 19.359375 -17.625 L 19.5625 -17.609375 L 19.015625 -12.328125 L 18.8125 -12.34375 C 18.863281 -13.164062 18.738281 -13.921875 18.4375 -14.609375 C 18.144531 -15.296875 17.71875 -15.898438 17.15625 -16.421875 C 16.601562 -16.953125 15.96875 -17.375 15.25 -17.6875 C 14.53125 -18 13.765625 -18.195312 12.953125 -18.28125 C 12.660156 -18.3125 12.296875 -18.289062 11.859375 -18.21875 C 11.421875 -18.144531 10.9375 -17.953125 10.40625 -17.640625 C 9.882812 -17.335938 9.375 -16.851562 8.875 -16.1875 C 8.382812 -15.53125 7.941406 -14.640625 7.546875 -13.515625 C 7.160156 -12.390625 6.878906 -10.960938 6.703125 -9.234375 C 6.523438 -7.515625 6.507812 -6.0625 6.65625 -4.875 C 6.8125 -3.6875 7.0625 -2.710938 7.40625 -1.953125 C 7.757812 -1.191406 8.160156 -0.609375 8.609375 -0.203125 C 9.054688 0.191406 9.484375 0.472656 9.890625 0.640625 C 10.304688 0.804688 10.660156 0.90625 10.953125 0.9375 C 12.210938 1.0625 13.347656 0.914062 14.359375 0.5 C 15.367188 0.09375 16.195312 -0.554688 16.84375 -1.453125 C 17.488281 -2.347656 17.878906 -3.441406 18.015625 -4.734375 L 18.046875 -5.046875 L 18.25 -5.03125 L 17.5625 1.609375 L 17.359375 1.59375 C 17.367188 1.144531 17.125 0.867188 16.625 0.765625 C 16.125 0.660156 15.347656 0.703125 14.296875 0.890625 C 13.210938 1.171875 12.09375 1.253906 10.9375 1.140625 Z M 10.9375 1.140625 "/></g></g></g><g fill="#000000" fill-opacity="1"><g transform="translate(180.949929, 352.983555)"><g><path d="M 1.125 -0.203125 C 1.945312 -0.191406 2.59375 -0.398438 3.0625 -0.828125 C 3.539062 -1.253906 3.785156 -1.835938 3.796875 -2.578125 L 3.859375 -16.8125 C 3.867188 -17.5625 3.632812 -18.144531 3.15625 -18.5625 C 2.6875 -18.988281 2.039062 -19.207031 1.21875 -19.21875 L 1.21875 -19.421875 L 11.203125 -19.375 L 11.203125 -19.171875 C 10.378906 -19.171875 9.726562 -18.957031 9.25 -18.53125 C 8.78125 -18.113281 8.539062 -17.53125 8.53125 -16.78125 L 8.46875 -2.546875 C 8.457031 -1.804688 8.6875 -1.222656 9.15625 -0.796875 C 9.632812 -0.367188 10.285156 -0.15625 11.109375 -0.15625 L 11.109375 0.046875 L 1.125 0 Z M 1.125 -0.203125 "/></g></g></g><g fill="#000000" fill-opacity="1"><g transform="translate(193.816091, 353.214317)"><g><path d="M 1.109375 -0.3125 C 1.921875 -0.394531 2.539062 -0.671875 2.96875 -1.140625 C 3.40625 -1.617188 3.585938 -2.222656 3.515625 -2.953125 L 2.125 -17.125 C 2.050781 -17.875 1.753906 -18.429688 1.234375 -18.796875 C 0.722656 -19.171875 0.0625 -19.316406 -0.75 -19.234375 L -0.765625 -19.4375 L 14.453125 -20.9375 L 15.703125 -16.03125 L 15.546875 -15.921875 L 15.421875 -16.3125 C 15.359375 -16.53125 15.238281 -16.820312 15.0625 -17.1875 C 14.882812 -17.550781 14.625 -17.921875 14.28125 -18.296875 C 13.9375 -18.671875 13.492188 -19.015625 12.953125 -19.328125 C 12.421875 -19.640625 11.757812 -19.875 10.96875 -20.03125 C 10.1875 -20.1875 9.253906 -20.210938 8.171875 -20.109375 L 6.546875 -19.953125 L 7.40625 -11.078125 L 10.765625 -11.40625 C 11.296875 -11.46875 11.695312 -11.609375 11.96875 -11.828125 C 12.25 -12.054688 12.453125 -12.316406 12.578125 -12.609375 C 12.703125 -12.910156 12.773438 -13.191406 12.796875 -13.453125 C 12.816406 -13.710938 12.820312 -13.910156 12.8125 -14.046875 L 12.796875 -14.15625 L 13 -14.171875 L 13.515625 -8.890625 L 13.3125 -8.875 L 13.296875 -8.984375 C 13.285156 -9.117188 13.242188 -9.304688 13.171875 -9.546875 C 13.097656 -9.796875 12.972656 -10.054688 12.796875 -10.328125 C 12.617188 -10.597656 12.367188 -10.820312 12.046875 -11 C 11.734375 -11.175781 11.3125 -11.242188 10.78125 -11.203125 L 7.421875 -10.875 L 8.15625 -3.40625 C 8.226562 -2.675781 8.519531 -2.117188 9.03125 -1.734375 C 9.550781 -1.359375 10.222656 -1.207031 11.046875 -1.28125 C 12.972656 -1.46875 14.539062 -2.03125 15.75 -2.96875 C 16.96875 -3.90625 17.757812 -5.210938 18.125 -6.890625 L 18.328125 -6.90625 L 17.359375 -1.703125 L 1.125 -0.109375 Z M 1.109375 -0.3125 "/></g></g></g><g fill="#000000" fill-opacity="1"><g transform="translate(214.605596, 351.198682)"><g><path d="M 0.40625 -16.6875 L -0.046875 -16.984375 L 3.1875 -3.3125 C 3.320312 -2.8125 3.519531 -2.429688 3.78125 -2.171875 C 4.050781 -1.921875 4.34375 -1.757812 4.65625 -1.6875 C 4.976562 -1.613281 5.265625 -1.582031 5.515625 -1.59375 C 5.773438 -1.601562 5.972656 -1.625 6.109375 -1.65625 L 6.21875 -1.6875 L 6.265625 -1.484375 L 1.09375 -0.265625 L 1.046875 -0.46875 L 1.15625 -0.484375 C 1.28125 -0.515625 1.460938 -0.582031 1.703125 -0.6875 C 1.941406 -0.789062 2.179688 -0.945312 2.421875 -1.15625 C 2.660156 -1.363281 2.84375 -1.640625 2.96875 -1.984375 C 3.101562 -2.335938 3.113281 -2.765625 3 -3.265625 L -0.21875 -16.875 C -0.445312 -17.800781 -0.828125 -18.421875 -1.359375 -18.734375 C -1.890625 -19.054688 -2.546875 -19.128906 -3.328125 -18.953125 L -3.375 -19.171875 L 2.78125 -20.625 L 16.375 -11 L 14.078125 -20.71875 C 13.921875 -21.300781 13.679688 -21.71875 13.359375 -21.96875 C 13.035156 -22.21875 12.695312 -22.363281 12.34375 -22.40625 C 11.988281 -22.457031 11.6875 -22.460938 11.4375 -22.421875 C 11.1875 -22.390625 11.0625 -22.375 11.0625 -22.375 L 11.015625 -22.578125 L 16.203125 -23.796875 L 16.25 -23.578125 C 16.25 -23.578125 16.128906 -23.539062 15.890625 -23.46875 C 15.648438 -23.394531 15.378906 -23.253906 15.078125 -23.046875 C 14.773438 -22.847656 14.535156 -22.566406 14.359375 -22.203125 C 14.179688 -21.835938 14.15625 -21.359375 14.28125 -20.765625 L 18.171875 -4.296875 L 17.953125 -4.25 Z M 0.40625 -16.6875 "/></g></g></g><g fill="#000000" fill-opacity="1"><g transform="translate(237.110337, 345.696938)"><g><path d="M 10.28125 -3.90625 C 9.050781 -3.4375 7.8125 -3.21875 6.5625 -3.25 C 5.320312 -3.28125 4.125 -3.535156 2.96875 -4.015625 C 1.820312 -4.492188 0.796875 -5.164062 -0.109375 -6.03125 C -1.015625 -6.894531 -1.734375 -7.925781 -2.265625 -9.125 L -2.671875 -10.171875 C -3.035156 -11.347656 -3.171875 -12.53125 -3.078125 -13.71875 C -2.984375 -14.914062 -2.710938 -16.039062 -2.265625 -17.09375 L -2.21875 -17.203125 C -1.675781 -18.398438 -0.9375 -19.441406 0 -20.328125 C 0.9375 -21.210938 2.023438 -21.890625 3.265625 -22.359375 C 4.347656 -22.773438 5.445312 -22.984375 6.5625 -22.984375 C 7.675781 -23.066406 8.445312 -23.226562 8.875 -23.46875 C 9.300781 -23.71875 9.460938 -24.039062 9.359375 -24.4375 L 9.546875 -24.515625 L 11.4375 -19.5625 L 11.25 -19.484375 C 10.925781 -20.234375 10.476562 -20.851562 9.90625 -21.34375 C 9.332031 -21.832031 8.675781 -22.179688 7.9375 -22.390625 C 7.207031 -22.609375 6.445312 -22.695312 5.65625 -22.65625 C 4.875 -22.613281 4.101562 -22.445312 3.34375 -22.15625 C 3.070312 -22.050781 2.753906 -21.867188 2.390625 -21.609375 C 2.023438 -21.347656 1.679688 -20.960938 1.359375 -20.453125 C 1.035156 -19.941406 0.800781 -19.273438 0.65625 -18.453125 C 0.507812 -17.628906 0.515625 -16.628906 0.671875 -15.453125 C 0.828125 -14.285156 1.210938 -12.890625 1.828125 -11.265625 C 2.441406 -9.648438 3.082031 -8.34375 3.75 -7.34375 C 4.425781 -6.34375 5.085938 -5.585938 5.734375 -5.078125 C 6.390625 -4.566406 7.003906 -4.226562 7.578125 -4.0625 C 8.160156 -3.90625 8.675781 -3.84375 9.125 -3.875 C 9.570312 -3.914062 9.929688 -3.988281 10.203125 -4.09375 C 11.378906 -4.539062 12.320312 -5.175781 13.03125 -6 C 13.75 -6.820312 14.195312 -7.78125 14.375 -8.875 C 14.550781 -9.96875 14.414062 -11.117188 13.96875 -12.328125 L 13.859375 -12.609375 L 14.046875 -12.6875 L 16.40625 -6.453125 L 16.21875 -6.375 C 16.019531 -6.78125 15.675781 -6.914062 15.1875 -6.78125 C 14.695312 -6.65625 14.023438 -6.269531 13.171875 -5.625 C 12.328125 -4.894531 11.363281 -4.320312 10.28125 -3.90625 Z M 10.28125 -3.90625 "/></g></g></g><g fill="#000000" fill-opacity="1"><g transform="translate(255.358936, 338.753008)"><g><path d="M 0.90625 -0.703125 C 1.625 -1.085938 2.09375 -1.578125 2.3125 -2.171875 C 2.539062 -2.773438 2.476562 -3.40625 2.125 -4.0625 L -4.53125 -16.640625 C -4.875 -17.304688 -5.351562 -17.710938 -5.96875 -17.859375 C -6.59375 -18.015625 -7.265625 -17.898438 -7.984375 -17.515625 L -8.078125 -17.703125 L 5.4375 -24.84375 L 8.4375 -20.78125 L 8.34375 -20.625 L 8.078125 -20.953125 C 7.941406 -21.128906 7.722656 -21.347656 7.421875 -21.609375 C 7.117188 -21.878906 6.738281 -22.125 6.28125 -22.34375 C 5.832031 -22.5625 5.296875 -22.710938 4.671875 -22.796875 C 4.054688 -22.890625 3.351562 -22.859375 2.5625 -22.703125 C 1.78125 -22.546875 0.90625 -22.210938 -0.0625 -21.703125 L -1.5 -20.9375 L 2.65625 -13.0625 L 5.640625 -14.640625 C 6.097656 -14.890625 6.414062 -15.171875 6.59375 -15.484375 C 6.769531 -15.796875 6.851562 -16.113281 6.84375 -16.4375 C 6.84375 -16.769531 6.800781 -17.054688 6.71875 -17.296875 C 6.644531 -17.546875 6.578125 -17.726562 6.515625 -17.84375 L 6.46875 -17.953125 L 6.65625 -18.046875 L 9.140625 -13.34375 L 8.953125 -13.25 L 8.890625 -13.34375 C 8.828125 -13.46875 8.710938 -13.628906 8.546875 -13.828125 C 8.390625 -14.035156 8.179688 -14.226562 7.921875 -14.40625 C 7.660156 -14.59375 7.347656 -14.707031 6.984375 -14.75 C 6.617188 -14.789062 6.203125 -14.691406 5.734375 -14.453125 L 2.75 -12.875 L 6.25 -6.25 C 6.601562 -5.59375 7.085938 -5.179688 7.703125 -5.015625 C 8.328125 -4.859375 9.003906 -4.972656 9.734375 -5.359375 C 11.441406 -6.265625 12.675781 -7.378906 13.4375 -8.703125 C 14.207031 -10.035156 14.453125 -11.550781 14.171875 -13.25 L 14.34375 -13.34375 L 15.421875 -8.15625 L 1 -0.53125 Z M 0.90625 -0.703125 "/></g></g></g><g fill="#000000" fill-opacity="1"><g transform="translate(273.611586, 328.913387)"><g><path d="M 3.46875 -3.03125 C 2.664062 -2.84375 2.0625 -2.65625 1.65625 -2.46875 C 1.257812 -2.289062 1 -2.109375 0.875 -1.921875 C 0.757812 -1.742188 0.734375 -1.5625 0.796875 -1.375 C 0.859375 -1.1875 0.960938 -0.988281 1.109375 -0.78125 L 1.125 -0.765625 L 0.953125 -0.65625 L -2.6875 -5.96875 L -2.515625 -6.078125 L -2.21875 -5.65625 C -1.8125 -5.0625 -1.257812 -4.578125 -0.5625 -4.203125 C 0.125 -3.828125 0.875 -3.582031 1.6875 -3.46875 C 2.507812 -3.363281 3.332031 -3.394531 4.15625 -3.5625 C 4.988281 -3.726562 5.742188 -4.039062 6.421875 -4.5 C 7.328125 -5.125 7.96875 -5.738281 8.34375 -6.34375 C 8.726562 -6.945312 8.910156 -7.53125 8.890625 -8.09375 C 8.878906 -8.664062 8.722656 -9.1875 8.421875 -9.65625 C 8.140625 -10.082031 7.75 -10.378906 7.25 -10.546875 C 6.75 -10.722656 6.171875 -10.820312 5.515625 -10.84375 C 4.859375 -10.863281 4.164062 -10.835938 3.4375 -10.765625 C 2.707031 -10.691406 1.984375 -10.625 1.265625 -10.5625 C 0.546875 -10.507812 -0.113281 -10.492188 -0.71875 -10.515625 C -2.125 -10.566406 -3.273438 -10.703125 -4.171875 -10.921875 C -5.078125 -11.148438 -5.765625 -11.515625 -6.234375 -12.015625 C -6.710938 -12.523438 -7.046875 -13.238281 -7.234375 -14.15625 C -7.378906 -15 -7.34375 -15.835938 -7.125 -16.671875 C -6.914062 -17.515625 -6.550781 -18.300781 -6.03125 -19.03125 C -5.507812 -19.757812 -4.878906 -20.378906 -4.140625 -20.890625 C -3.796875 -21.117188 -3.445312 -21.3125 -3.09375 -21.46875 C -2.738281 -21.632812 -2.363281 -21.75 -1.96875 -21.8125 C -1.78125 -21.851562 -1.53125 -21.90625 -1.21875 -21.96875 C -0.914062 -22.03125 -0.625 -22.113281 -0.34375 -22.21875 C -0.0703125 -22.320312 0.132812 -22.445312 0.28125 -22.59375 C 0.425781 -22.738281 0.445312 -22.898438 0.34375 -23.078125 L 0.28125 -23.15625 L 0.453125 -23.265625 L 3.46875 -18.859375 L 3.296875 -18.75 C 3.296875 -18.75 3.210938 -18.847656 3.046875 -19.046875 C 2.890625 -19.253906 2.664062 -19.503906 2.375 -19.796875 C 2.09375 -20.097656 1.753906 -20.394531 1.359375 -20.6875 C 0.960938 -20.988281 0.535156 -21.238281 0.078125 -21.4375 C -0.367188 -21.632812 -0.832031 -21.722656 -1.3125 -21.703125 C -1.757812 -21.679688 -2.210938 -21.582031 -2.671875 -21.40625 C -3.140625 -21.238281 -3.59375 -21.007812 -4.03125 -20.71875 C -4.738281 -20.226562 -5.226562 -19.726562 -5.5 -19.21875 C -5.78125 -18.71875 -5.878906 -18.21875 -5.796875 -17.71875 C -5.722656 -17.226562 -5.523438 -16.75 -5.203125 -16.28125 C -4.765625 -15.65625 -4.160156 -15.242188 -3.390625 -15.046875 C -2.617188 -14.859375 -1.601562 -14.796875 -0.34375 -14.859375 C 0.757812 -14.921875 1.769531 -15.003906 2.6875 -15.109375 C 3.613281 -15.210938 4.46875 -15.25 5.25 -15.21875 C 6.03125 -15.1875 6.753906 -15.007812 7.421875 -14.6875 C 8.097656 -14.363281 8.71875 -13.789062 9.28125 -12.96875 C 9.644531 -12.4375 9.90625 -11.785156 10.0625 -11.015625 C 10.226562 -10.253906 10.253906 -9.554688 10.140625 -8.921875 C 10.015625 -8.253906 9.738281 -7.609375 9.3125 -6.984375 C 8.882812 -6.359375 8.351562 -5.78125 7.71875 -5.25 C 7.09375 -4.71875 6.414062 -4.257812 5.6875 -3.875 C 4.957031 -3.488281 4.21875 -3.207031 3.46875 -3.03125 Z M 3.46875 -3.03125 "/></g></g></g><g fill="#000000" fill-opacity="1"><g transform="translate(286.953578, 319.697937)"><g/></g></g><g fill="#000000" fill-opacity="1"><g transform="translate(297.906963, 310.743438)"><g><path d="M 7.703125 -7.859375 C 6.785156 -6.921875 5.75 -6.203125 4.59375 -5.703125 C 3.445312 -5.210938 2.253906 -4.945312 1.015625 -4.90625 C -0.222656 -4.863281 -1.4375 -5.039062 -2.625 -5.4375 C -3.8125 -5.832031 -4.894531 -6.460938 -5.875 -7.328125 L -6.6875 -8.109375 C -7.507812 -9.023438 -8.128906 -10.046875 -8.546875 -11.171875 C -8.960938 -12.296875 -9.179688 -13.429688 -9.203125 -14.578125 L -9.203125 -14.671875 C -9.210938 -15.992188 -8.976562 -17.253906 -8.5 -18.453125 C -8.019531 -19.648438 -7.316406 -20.722656 -6.390625 -21.671875 C -5.578125 -22.492188 -4.664062 -23.144531 -3.65625 -23.625 C -2.675781 -24.164062 -2.039062 -24.632812 -1.75 -25.03125 C -1.46875 -25.4375 -1.46875 -25.800781 -1.75 -26.125 L -1.609375 -26.265625 L 2.1875 -22.546875 L 2.046875 -22.40625 C 1.441406 -22.957031 0.773438 -23.332031 0.046875 -23.53125 C -0.671875 -23.738281 -1.410156 -23.785156 -2.171875 -23.671875 C -2.929688 -23.554688 -3.65625 -23.3125 -4.34375 -22.9375 C -5.039062 -22.570312 -5.675781 -22.101562 -6.25 -21.53125 C -6.457031 -21.320312 -6.664062 -21.019531 -6.875 -20.625 C -7.09375 -20.226562 -7.242188 -19.734375 -7.328125 -19.140625 C -7.410156 -18.546875 -7.34375 -17.84375 -7.125 -17.03125 C -6.914062 -16.226562 -6.492188 -15.320312 -5.859375 -14.3125 C -5.222656 -13.3125 -4.285156 -12.203125 -3.046875 -10.984375 C -1.816406 -9.773438 -0.691406 -8.859375 0.328125 -8.234375 C 1.359375 -7.609375 2.273438 -7.203125 3.078125 -7.015625 C 3.890625 -6.828125 4.59375 -6.773438 5.1875 -6.859375 C 5.78125 -6.953125 6.269531 -7.113281 6.65625 -7.34375 C 7.050781 -7.570312 7.351562 -7.789062 7.5625 -8 C 8.445312 -8.894531 9.035156 -9.863281 9.328125 -10.90625 C 9.628906 -11.945312 9.632812 -13 9.34375 -14.0625 C 9.050781 -15.132812 8.441406 -16.128906 7.515625 -17.046875 L 7.296875 -17.265625 L 7.4375 -17.40625 L 12.203125 -12.734375 L 12.0625 -12.59375 C 11.71875 -12.875 11.347656 -12.847656 10.953125 -12.515625 C 10.554688 -12.191406 10.109375 -11.5625 9.609375 -10.625 C 9.148438 -9.601562 8.515625 -8.679688 7.703125 -7.859375 Z M 7.703125 -7.859375 "/></g></g></g><g fill="#000000" fill-opacity="1"><g transform="translate(311.571022, 296.795232)"><g><path d="M 0.53125 -1.015625 C 1.03125 -1.671875 1.253906 -2.316406 1.203125 -2.953125 C 1.148438 -3.585938 0.828125 -4.128906 0.234375 -4.578125 L -11.078125 -13.21875 C -11.671875 -13.664062 -12.273438 -13.832031 -12.890625 -13.71875 C -13.515625 -13.601562 -14.078125 -13.21875 -14.578125 -12.5625 L -14.75 -12.671875 L -8.6875 -20.609375 L -8.515625 -20.5 C -9.015625 -19.84375 -9.242188 -19.195312 -9.203125 -18.5625 C -9.160156 -17.925781 -8.84375 -17.382812 -8.25 -16.9375 L 3.0625 -8.296875 C 3.65625 -7.847656 4.265625 -7.679688 4.890625 -7.796875 C 5.523438 -7.910156 6.09375 -8.296875 6.59375 -8.953125 C 7.757812 -10.492188 8.414062 -12.023438 8.5625 -13.546875 C 8.707031 -15.078125 8.289062 -16.550781 7.3125 -17.96875 L 7.4375 -18.125 L 10.578125 -13.859375 L 0.6875 -0.890625 Z M 0.53125 -1.015625 "/></g></g></g><g fill="#000000" fill-opacity="1"><g transform="translate(324.280885, 280.210871)"><g><path d="M 5.859375 -9.984375 C 5.390625 -9.160156 4.785156 -8.425781 4.046875 -7.78125 C 3.304688 -7.132812 2.488281 -6.617188 1.59375 -6.234375 C 0.707031 -5.859375 -0.1875 -5.664062 -1.09375 -5.65625 C -2.007812 -5.644531 -2.863281 -5.863281 -3.65625 -6.3125 L -12.8125 -11.515625 C -13.457031 -11.878906 -14.078125 -11.96875 -14.671875 -11.78125 C -15.265625 -11.601562 -15.757812 -11.164062 -16.15625 -10.46875 L -16.328125 -10.578125 L -11.53125 -19.015625 L -11.359375 -18.90625 C -11.773438 -18.1875 -11.910156 -17.535156 -11.765625 -16.953125 C -11.617188 -16.378906 -11.253906 -15.929688 -10.671875 -15.609375 L -2.875 -11.171875 C -2.3125 -10.859375 -1.695312 -10.550781 -1.03125 -10.25 C -0.375 -9.957031 0.289062 -9.707031 0.96875 -9.5 C 1.644531 -9.300781 2.304688 -9.203125 2.953125 -9.203125 C 3.597656 -9.203125 4.1875 -9.328125 4.71875 -9.578125 C 5.257812 -9.835938 5.707031 -10.269531 6.0625 -10.875 C 6.269531 -11.257812 6.453125 -11.726562 6.609375 -12.28125 C 6.773438 -12.832031 6.875 -13.425781 6.90625 -14.0625 C 6.9375 -14.695312 6.867188 -15.335938 6.703125 -15.984375 C 6.535156 -16.640625 6.234375 -17.265625 5.796875 -17.859375 C 5.359375 -18.453125 4.738281 -18.976562 3.9375 -19.4375 L -5.4375 -24.75 C -6.050781 -25.101562 -6.644531 -25.179688 -7.21875 -24.984375 C -7.789062 -24.785156 -8.28125 -24.332031 -8.6875 -23.625 L -8.859375 -23.734375 L -6.234375 -28.359375 L -6.0625 -28.25 C -6.445312 -27.570312 -6.578125 -26.929688 -6.453125 -26.328125 C -6.328125 -25.734375 -5.957031 -25.257812 -5.34375 -24.90625 L 4.03125 -19.59375 C 5.25 -18.894531 6.097656 -18.023438 6.578125 -16.984375 C 7.066406 -15.941406 7.234375 -14.804688 7.078125 -13.578125 C 6.929688 -12.359375 6.523438 -11.160156 5.859375 -9.984375 Z M 5.859375 -9.984375 "/></g></g></g><g fill="#000000" fill-opacity="1"><g transform="translate(335.773004, 259.670268)"><g><path d="M 0.234375 -1.125 L 0.34375 -1.390625 C 0.394531 -1.554688 0.441406 -1.773438 0.484375 -2.046875 C 0.523438 -2.328125 0.519531 -2.613281 0.46875 -2.90625 C 0.425781 -3.207031 0.285156 -3.5 0.046875 -3.78125 C -0.179688 -4.0625 -0.53125 -4.296875 -1 -4.484375 L -14.21875 -9.765625 C -14.707031 -9.960938 -15.128906 -10.035156 -15.484375 -9.984375 C -15.835938 -9.929688 -16.140625 -9.8125 -16.390625 -9.625 C -16.640625 -9.445312 -16.84375 -9.238281 -17 -9 C -17.15625 -8.769531 -17.265625 -8.582031 -17.328125 -8.4375 L -17.421875 -8.1875 L -17.609375 -8.265625 L -13.984375 -17.3125 C -13.640625 -18.164062 -13.25 -18.957031 -12.8125 -19.6875 C -12.375 -20.425781 -11.875 -21.039062 -11.3125 -21.53125 C -10.75 -22.019531 -10.117188 -22.335938 -9.421875 -22.484375 C -8.734375 -22.628906 -7.972656 -22.535156 -7.140625 -22.203125 C -6.222656 -21.835938 -5.566406 -21.3125 -5.171875 -20.625 C -4.785156 -19.945312 -4.585938 -19.1875 -4.578125 -18.34375 C -4.566406 -17.5 -4.660156 -16.625 -4.859375 -15.71875 C -4.421875 -16.6875 -3.859375 -17.519531 -3.171875 -18.21875 C -2.492188 -18.925781 -1.710938 -19.40625 -0.828125 -19.65625 C 0.0546875 -19.914062 1.035156 -19.832031 2.109375 -19.40625 C 2.992188 -19.050781 3.671875 -18.570312 4.140625 -17.96875 C 4.609375 -17.363281 4.914062 -16.675781 5.0625 -15.90625 C 5.21875 -15.132812 5.222656 -14.316406 5.078125 -13.453125 C 4.941406 -12.597656 4.695312 -11.726562 4.34375 -10.84375 L 0.421875 -1.046875 Z M -5.609375 -13.96875 C -5.304688 -14.71875 -5.445312 -15.4375 -6.03125 -16.125 C -6.625 -16.820312 -7.5625 -17.425781 -8.84375 -17.9375 C -10.101562 -18.445312 -11.164062 -18.644531 -12.03125 -18.53125 C -12.90625 -18.414062 -13.492188 -17.984375 -13.796875 -17.234375 L -14.703125 -14.984375 L -6.515625 -11.71875 Z M 4.15625 -10.921875 C 4.351562 -11.429688 4.304688 -11.941406 4.015625 -12.453125 C 3.734375 -12.972656 3.273438 -13.460938 2.640625 -13.921875 C 2.003906 -14.378906 1.257812 -14.78125 0.40625 -15.125 C -0.445312 -15.46875 -1.253906 -15.6875 -2.015625 -15.78125 C -2.773438 -15.882812 -3.429688 -15.84375 -3.984375 -15.65625 C -4.535156 -15.476562 -4.910156 -15.132812 -5.109375 -14.625 L -6.3125 -11.625 L 0.78125 -8.796875 C 1.25 -8.597656 1.660156 -8.519531 2.015625 -8.5625 C 2.378906 -8.613281 2.679688 -8.726562 2.921875 -8.90625 C 3.171875 -9.082031 3.363281 -9.273438 3.5 -9.484375 C 3.644531 -9.703125 3.742188 -9.878906 3.796875 -10.015625 Z M 4.15625 -10.921875 "/></g></g></g><g fill="#000000" fill-opacity="1"><g transform="translate(43.470494, 139.924375)"><g><path d="M 4.359375 -10.09375 C 3.835938 -8.894531 3.128906 -7.859375 2.234375 -6.984375 C 1.335938 -6.109375 0.320312 -5.425781 -0.8125 -4.9375 C -1.945312 -4.445312 -3.140625 -4.175781 -4.390625 -4.125 C -5.648438 -4.082031 -6.890625 -4.285156 -8.109375 -4.734375 L -9.140625 -5.171875 C -10.242188 -5.734375 -11.191406 -6.460938 -11.984375 -7.359375 C -12.773438 -8.253906 -13.390625 -9.234375 -13.828125 -10.296875 L -13.875 -10.390625 C -14.351562 -11.609375 -14.582031 -12.863281 -14.5625 -14.15625 C -14.539062 -15.457031 -14.269531 -16.710938 -13.75 -17.921875 C -13.289062 -18.984375 -12.675781 -19.925781 -11.90625 -20.75 C -11.1875 -21.582031 -10.765625 -22.238281 -10.640625 -22.71875 C -10.523438 -23.207031 -10.644531 -23.550781 -11 -23.75 L -10.921875 -23.9375 L -6.046875 -21.828125 L -6.125 -21.640625 C -6.894531 -21.941406 -7.648438 -22.050781 -8.390625 -21.96875 C -9.140625 -21.894531 -9.847656 -21.671875 -10.515625 -21.296875 C -11.191406 -20.929688 -11.785156 -20.453125 -12.296875 -19.859375 C -12.816406 -19.265625 -13.238281 -18.59375 -13.5625 -17.84375 C -13.675781 -17.570312 -13.765625 -17.210938 -13.828125 -16.765625 C -13.890625 -16.328125 -13.851562 -15.816406 -13.71875 -15.234375 C -13.582031 -14.648438 -13.269531 -14.019531 -12.78125 -13.34375 C -12.289062 -12.664062 -11.566406 -11.972656 -10.609375 -11.265625 C -9.660156 -10.554688 -8.390625 -9.859375 -6.796875 -9.171875 C -5.210938 -8.484375 -3.828125 -8.03125 -2.640625 -7.8125 C -1.460938 -7.601562 -0.460938 -7.550781 0.359375 -7.65625 C 1.179688 -7.769531 1.851562 -7.972656 2.375 -8.265625 C 2.894531 -8.566406 3.296875 -8.890625 3.578125 -9.234375 C 3.859375 -9.585938 4.054688 -9.898438 4.171875 -10.171875 C 4.671875 -11.328125 4.875 -12.445312 4.78125 -13.53125 C 4.6875 -14.613281 4.304688 -15.597656 3.640625 -16.484375 C 2.984375 -17.367188 2.066406 -18.078125 0.890625 -18.609375 L 0.609375 -18.734375 L 0.6875 -18.921875 L 6.8125 -16.265625 L 6.734375 -16.078125 C 6.304688 -16.222656 5.960938 -16.070312 5.703125 -15.625 C 5.453125 -15.175781 5.265625 -14.425781 5.140625 -13.375 C 5.078125 -12.25 4.816406 -11.15625 4.359375 -10.09375 Z M 4.359375 -10.09375 "/></g></g></g><g fill="#000000" fill-opacity="1"><g transform="translate(50.377278, 123.311732)"><g><path d="M 0.40625 -1.078125 L 0.609375 -1.40625 C 0.710938 -1.625 0.789062 -1.976562 0.84375 -2.46875 C 0.90625 -2.957031 0.832031 -3.570312 0.625 -4.3125 C 0.414062 -5.050781 -0.0351562 -5.921875 -0.734375 -6.921875 L -6.9375 -16.078125 L -10.140625 -20.71875 L 8.265625 -18.546875 C 9.035156 -18.460938 9.675781 -18.519531 10.1875 -18.71875 C 10.707031 -18.925781 11.101562 -19.164062 11.375 -19.4375 C 11.644531 -19.707031 11.828125 -19.90625 11.921875 -20.03125 L 11.96875 -20.109375 L 12.140625 -20 L 7.40625 -12.1875 L 7.234375 -12.296875 L 7.28125 -12.390625 C 7.351562 -12.503906 7.414062 -12.660156 7.46875 -12.859375 C 7.53125 -13.066406 7.546875 -13.289062 7.515625 -13.53125 C 7.492188 -13.769531 7.359375 -13.984375 7.109375 -14.171875 C 6.859375 -14.367188 6.4375 -14.5 5.84375 -14.5625 L 2.265625 -14.984375 L -1.609375 -8.59375 L -0.625 -7.109375 C -0.15625 -6.429688 0.265625 -5.929688 0.640625 -5.609375 C 1.015625 -5.285156 1.347656 -5.082031 1.640625 -5 C 1.929688 -4.914062 2.175781 -4.910156 2.375 -4.984375 C 2.582031 -5.054688 2.75 -5.15625 2.875 -5.28125 C 3.007812 -5.40625 3.097656 -5.5 3.140625 -5.5625 L 3.171875 -5.609375 L 3.34375 -5.5 L 0.578125 -0.96875 Z M 2.0625 -15.015625 L -6.6875 -16.046875 L -1.71875 -8.78125 Z M 2.0625 -15.015625 "/></g></g></g><g fill="#000000" fill-opacity="1"><g transform="translate(62.442041, 103.016653)"><g><path d="M -10.265625 -14 L 0.671875 -4.5625 C 1.242188 -4.113281 1.832031 -3.9375 2.4375 -4.03125 C 3.039062 -4.132812 3.585938 -4.460938 4.078125 -5.015625 L 4.234375 -4.890625 L 0.734375 -0.84375 L 0.578125 -0.96875 C 1.097656 -1.582031 1.351562 -2.191406 1.34375 -2.796875 C 1.332031 -3.410156 1.0625 -3.953125 0.53125 -4.421875 L -10.40625 -13.859375 C -10.863281 -14.253906 -11.289062 -14.457031 -11.6875 -14.46875 C -12.09375 -14.476562 -12.457031 -14.394531 -12.78125 -14.21875 C -13.101562 -14.039062 -13.351562 -13.859375 -13.53125 -13.671875 C -13.71875 -13.492188 -13.8125 -13.40625 -13.8125 -13.40625 L -13.96875 -13.53125 L -9.59375 -18.59375 L 4.515625 -14.203125 L -1.90625 -27.5 L 2.78125 -32.9375 L 2.953125 -32.796875 C 2.953125 -32.796875 2.875 -32.691406 2.71875 -32.484375 C 2.5625 -32.285156 2.421875 -32.015625 2.296875 -31.671875 C 2.179688 -31.328125 2.160156 -30.953125 2.234375 -30.546875 C 2.316406 -30.140625 2.597656 -29.726562 3.078125 -29.3125 L 13.9375 -19.9375 C 14.507812 -19.488281 15.097656 -19.3125 15.703125 -19.40625 C 16.304688 -19.5 16.847656 -19.828125 17.328125 -20.390625 L 17.484375 -20.265625 L 11.125 -12.890625 L 10.96875 -13.015625 C 11.5 -13.617188 11.757812 -14.226562 11.75 -14.84375 C 11.738281 -15.457031 11.46875 -16 10.9375 -16.46875 L -1.546875 -27.234375 L 7.53125 -8.4375 Z M -10.265625 -14 "/></g></g></g><g fill="#000000" fill-opacity="1"><g transform="translate(80.266381, 82.733777)"><g><path d="M 0.734375 -0.890625 L 0.953125 -1.078125 C 1.078125 -1.203125 1.21875 -1.375 1.375 -1.59375 C 1.539062 -1.8125 1.671875 -2.066406 1.765625 -2.359375 C 1.867188 -2.648438 1.878906 -2.96875 1.796875 -3.3125 C 1.722656 -3.664062 1.519531 -4.035156 1.1875 -4.421875 L -8.046875 -15.25 C -8.390625 -15.65625 -8.726562 -15.914062 -9.0625 -16.03125 C -9.40625 -16.15625 -9.726562 -16.191406 -10.03125 -16.140625 C -10.34375 -16.085938 -10.617188 -15.992188 -10.859375 -15.859375 C -11.109375 -15.734375 -11.296875 -15.617188 -11.421875 -15.515625 L -11.625 -15.34375 L -11.75 -15.5 L -4.34375 -21.828125 C -3.644531 -22.421875 -2.929688 -22.941406 -2.203125 -23.390625 C -1.472656 -23.835938 -0.742188 -24.144531 -0.015625 -24.3125 C 0.710938 -24.488281 1.414062 -24.476562 2.09375 -24.28125 C 2.78125 -24.082031 3.414062 -23.644531 4 -22.96875 C 4.644531 -22.21875 4.976562 -21.453125 5 -20.671875 C 5.019531 -19.898438 4.835938 -19.132812 4.453125 -18.375 C 4.078125 -17.625 3.585938 -16.890625 2.984375 -16.171875 C 3.835938 -16.816406 4.726562 -17.289062 5.65625 -17.59375 C 6.582031 -17.90625 7.5 -17.96875 8.40625 -17.78125 C 9.3125 -17.601562 10.140625 -17.078125 10.890625 -16.203125 C 11.503906 -15.472656 11.878906 -14.734375 12.015625 -13.984375 C 12.148438 -13.234375 12.101562 -12.484375 11.875 -11.734375 C 11.644531 -10.984375 11.269531 -10.257812 10.75 -9.5625 C 10.226562 -8.863281 9.609375 -8.207031 8.890625 -7.59375 L 0.859375 -0.734375 Z M 1.515625 -14.96875 C 2.140625 -15.5 2.347656 -16.207031 2.140625 -17.09375 C 1.941406 -17.976562 1.394531 -18.941406 0.5 -19.984375 C -0.382812 -21.023438 -1.234375 -21.695312 -2.046875 -22 C -2.867188 -22.3125 -3.59375 -22.203125 -4.21875 -21.671875 L -6.0625 -20.09375 L -0.328125 -13.390625 Z M 8.765625 -7.75 C 9.171875 -8.09375 9.363281 -8.5625 9.34375 -9.15625 C 9.320312 -9.75 9.140625 -10.398438 8.796875 -11.109375 C 8.453125 -11.816406 7.984375 -12.519531 7.390625 -13.21875 C 6.796875 -13.90625 6.179688 -14.46875 5.546875 -14.90625 C 4.910156 -15.351562 4.304688 -15.625 3.734375 -15.71875 C 3.171875 -15.8125 2.6875 -15.6875 2.28125 -15.34375 L -0.1875 -13.234375 L 4.765625 -7.421875 C 5.097656 -7.035156 5.4375 -6.773438 5.78125 -6.640625 C 6.125 -6.515625 6.441406 -6.472656 6.734375 -6.515625 C 7.023438 -6.566406 7.28125 -6.65625 7.5 -6.78125 C 7.726562 -6.90625 7.898438 -7.015625 8.015625 -7.109375 Z M 8.765625 -7.75 "/></g></g></g><g fill="#000000" fill-opacity="1"><g transform="translate(94.703667, 70.17793)"><g><path d="M 0.84375 -0.78125 C 1.550781 -1.226562 1.992188 -1.738281 2.171875 -2.3125 C 2.359375 -2.882812 2.234375 -3.519531 1.796875 -4.21875 L -5.875 -16.203125 C -6.164062 -16.648438 -6.46875 -16.957031 -6.78125 -17.125 C -7.101562 -17.289062 -7.414062 -17.367188 -7.71875 -17.359375 C -8.03125 -17.359375 -8.316406 -17.3125 -8.578125 -17.21875 C -8.847656 -17.125 -9.050781 -17.03125 -9.1875 -16.9375 L -9.40625 -16.796875 L -9.515625 -16.96875 L -1.3125 -22.21875 C -0.539062 -22.71875 0.25 -23.117188 1.0625 -23.421875 C 1.875 -23.722656 2.664062 -23.882812 3.4375 -23.90625 C 4.21875 -23.9375 4.941406 -23.785156 5.609375 -23.453125 C 6.285156 -23.117188 6.867188 -22.570312 7.359375 -21.8125 C 7.890625 -20.976562 8.132812 -20.140625 8.09375 -19.296875 C 8.0625 -18.460938 7.820312 -17.664062 7.375 -16.90625 C 6.925781 -16.15625 6.351562 -15.472656 5.65625 -14.859375 C 6.59375 -15.378906 7.410156 -15.691406 8.109375 -15.796875 C 8.804688 -15.898438 9.507812 -15.785156 10.21875 -15.453125 C 10.9375 -15.128906 11.753906 -14.582031 12.671875 -13.8125 C 13.648438 -13.007812 14.476562 -12.425781 15.15625 -12.0625 C 15.832031 -11.695312 16.441406 -11.53125 16.984375 -11.5625 C 17.523438 -11.601562 18.078125 -11.804688 18.640625 -12.171875 L 18.75 -12 L 15.328125 -9.8125 C 14.617188 -9.351562 13.742188 -9.210938 12.703125 -9.390625 C 11.660156 -9.566406 10.363281 -10.210938 8.8125 -11.328125 C 8.050781 -11.878906 7.445312 -12.359375 7 -12.765625 C 6.550781 -13.171875 6.1875 -13.484375 5.90625 -13.703125 C 5.625 -13.921875 5.367188 -14.035156 5.140625 -14.046875 C 4.910156 -14.066406 4.625 -13.96875 4.28125 -13.75 L 2.125 -12.375 L 5.75 -6.703125 C 6.175781 -6.035156 6.648438 -5.640625 7.171875 -5.515625 C 7.703125 -5.398438 8.320312 -5.570312 9.03125 -6.03125 L 9.140625 -5.859375 L 0.953125 -0.609375 Z M 4.03125 -13.875 C 4.488281 -14.164062 4.753906 -14.59375 4.828125 -15.15625 C 4.910156 -15.71875 4.828125 -16.363281 4.578125 -17.09375 C 4.335938 -17.820312 3.972656 -18.570312 3.484375 -19.34375 C 2.984375 -20.125 2.460938 -20.765625 1.921875 -21.265625 C 1.378906 -21.765625 0.835938 -22.09375 0.296875 -22.25 C -0.242188 -22.40625 -0.742188 -22.335938 -1.203125 -22.046875 L -3.234375 -20.75 L 2 -12.578125 Z M 4.03125 -13.875 "/></g></g></g><g fill="#000000" fill-opacity="1"><g transform="translate(113.978176, 58.173214)"><g><path d="M 0.921875 -0.6875 C 1.660156 -1.039062 2.144531 -1.515625 2.375 -2.109375 C 2.613281 -2.703125 2.570312 -3.332031 2.25 -4 L -4.015625 -16.78125 C -4.347656 -17.457031 -4.816406 -17.875 -5.421875 -18.03125 C -6.035156 -18.195312 -6.710938 -18.101562 -7.453125 -17.75 L -7.53125 -17.9375 L 1.421875 -22.328125 L 1.5 -22.140625 C 0.757812 -21.773438 0.269531 -21.300781 0.03125 -20.71875 C -0.195312 -20.132812 -0.144531 -19.503906 0.1875 -18.828125 L 6.453125 -6.046875 C 6.773438 -5.378906 7.238281 -4.957031 7.84375 -4.78125 C 8.457031 -4.613281 9.132812 -4.710938 9.875 -5.078125 L 9.96875 -4.890625 L 1.015625 -0.5 Z M 0.921875 -0.6875 "/></g></g></g><g fill="#000000" fill-opacity="1"><g transform="translate(124.278244, 52.79652)"><g><path d="M 0.984375 -0.59375 C 1.847656 -0.894531 2.40625 -1.328125 2.65625 -1.890625 C 2.90625 -2.453125 2.90625 -3.066406 2.65625 -3.734375 L -2.21875 -17.1875 C -2.46875 -17.875 -2.875 -18.328125 -3.4375 -18.546875 C -4.007812 -18.765625 -4.691406 -18.734375 -5.484375 -18.453125 L -5.5625 -18.65625 L 5.296875 -22.59375 C 5.847656 -22.789062 6.410156 -22.921875 6.984375 -22.984375 C 7.566406 -23.046875 8.148438 -23.019531 8.734375 -22.90625 C 9.796875 -22.71875 10.828125 -22.3125 11.828125 -21.6875 C 12.804688 -21.070312 13.65625 -20.289062 14.375 -19.34375 C 15.101562 -18.40625 15.679688 -17.351562 16.109375 -16.1875 C 16.984375 -13.769531 17.066406 -11.4375 16.359375 -9.1875 C 16.203125 -8.632812 15.988281 -8.109375 15.71875 -7.609375 C 15.445312 -7.109375 15.128906 -6.660156 14.765625 -6.265625 C 14.378906 -5.804688 13.820312 -5.375 13.09375 -4.96875 C 12.375 -4.5625 11.632812 -4.21875 10.875 -3.9375 L 1.0625 -0.390625 Z M 10.9375 -4.203125 C 11.539062 -4.421875 12 -4.769531 12.3125 -5.25 C 12.632812 -5.738281 12.847656 -6.304688 12.953125 -6.953125 C 13.054688 -7.597656 13.085938 -8.28125 13.046875 -9 C 13.003906 -9.71875 12.910156 -10.425781 12.765625 -11.125 C 12.617188 -11.832031 12.453125 -12.488281 12.265625 -13.09375 C 12.085938 -13.695312 11.925781 -14.203125 11.78125 -14.609375 C 11.632812 -14.992188 11.453125 -15.472656 11.234375 -16.046875 C 11.015625 -16.617188 10.742188 -17.226562 10.421875 -17.875 C 10.109375 -18.53125 9.753906 -19.15625 9.359375 -19.75 C 8.972656 -20.351562 8.546875 -20.875 8.078125 -21.3125 C 7.617188 -21.75 7.128906 -22.054688 6.609375 -22.234375 C 6.085938 -22.410156 5.519531 -22.390625 4.90625 -22.171875 L 1.421875 -20.890625 L 7.078125 -5.28125 C 7.347656 -4.582031 7.6875 -4.132812 8.09375 -3.9375 C 8.507812 -3.738281 8.96875 -3.6875 9.46875 -3.78125 C 9.96875 -3.882812 10.457031 -4.023438 10.9375 -4.203125 Z M 10.9375 -4.203125 "/></g></g></g><g fill="#000000" fill-opacity="1"><g transform="translate(143.974345, 45.569054)"><g><path d="M 10.734375 -2.265625 C 9.460938 -1.992188 8.210938 -1.96875 6.984375 -2.1875 C 5.753906 -2.414062 4.609375 -2.859375 3.546875 -3.515625 C 2.492188 -4.171875 1.585938 -4.992188 0.828125 -5.984375 C 0.0664062 -6.972656 -0.484375 -8.097656 -0.828125 -9.359375 L -1.0625 -10.46875 C -1.4375 -12.914062 -0.914062 -15.226562 0.5 -17.40625 C 1.21875 -18.46875 2.109375 -19.359375 3.171875 -20.078125 C 4.242188 -20.804688 5.410156 -21.304688 6.671875 -21.578125 C 7.796875 -21.804688 8.925781 -21.847656 10.0625 -21.703125 C 11.164062 -21.597656 11.945312 -21.632812 12.40625 -21.8125 C 12.875 -21.988281 13.082031 -22.285156 13.03125 -22.703125 L 13.234375 -22.734375 L 14.328125 -17.53125 L 14.125 -17.5 C 13.84375 -18.664062 13.300781 -19.566406 12.5 -20.203125 C 11.695312 -20.847656 10.644531 -21.25 9.34375 -21.40625 C 8.75 -21.457031 8.210938 -21.460938 7.734375 -21.421875 C 7.265625 -21.390625 6.925781 -21.351562 6.71875 -21.3125 C 6.445312 -21.25 6.109375 -21.113281 5.703125 -20.90625 C 5.296875 -20.707031 4.894531 -20.382812 4.5 -19.9375 C 4.101562 -19.488281 3.769531 -18.878906 3.5 -18.109375 C 3.226562 -17.335938 3.078125 -16.359375 3.046875 -15.171875 C 3.015625 -13.984375 3.179688 -12.535156 3.546875 -10.828125 C 3.898438 -9.140625 4.328125 -7.753906 4.828125 -6.671875 C 5.335938 -5.585938 5.875 -4.75 6.4375 -4.15625 C 7 -3.5625 7.550781 -3.140625 8.09375 -2.890625 C 8.632812 -2.640625 9.128906 -2.5 9.578125 -2.46875 C 10.035156 -2.445312 10.398438 -2.46875 10.671875 -2.53125 C 11.117188 -2.625 11.628906 -2.796875 12.203125 -3.046875 C 12.785156 -3.304688 13.269531 -3.578125 13.65625 -3.859375 L 12.578125 -9.015625 C 12.398438 -9.753906 12.035156 -10.265625 11.484375 -10.546875 C 10.941406 -10.828125 10.3125 -10.894531 9.59375 -10.75 L 9.5625 -10.9375 L 19.0625 -12.9375 L 19.09375 -12.75 C 18.320312 -12.582031 17.757812 -12.253906 17.40625 -11.765625 C 17.050781 -11.285156 16.929688 -10.691406 17.046875 -9.984375 L 18.296875 -4.0625 L 18.109375 -4.015625 C 18.035156 -4.285156 17.773438 -4.4375 17.328125 -4.46875 C 16.878906 -4.5 16.347656 -4.429688 15.734375 -4.265625 C 15.117188 -4.097656 14.5 -3.847656 13.875 -3.515625 C 12.90625 -2.910156 11.859375 -2.492188 10.734375 -2.265625 Z M 10.734375 -2.265625 "/></g></g></g><g fill="#000000" fill-opacity="1"><g transform="translate(165.170837, 41.136372)"><g><path d="M 1.109375 -0.28125 C 1.929688 -0.34375 2.5625 -0.601562 3 -1.0625 C 3.4375 -1.53125 3.628906 -2.132812 3.578125 -2.875 L 2.546875 -17.0625 C 2.492188 -17.8125 2.21875 -18.378906 1.71875 -18.765625 C 1.21875 -19.148438 0.554688 -19.3125 -0.265625 -19.25 L -0.28125 -19.453125 L 14.96875 -20.5625 L 16.09375 -15.640625 L 15.9375 -15.53125 L 15.828125 -15.921875 C 15.765625 -16.140625 15.648438 -16.429688 15.484375 -16.796875 C 15.316406 -17.160156 15.066406 -17.535156 14.734375 -17.921875 C 14.398438 -18.304688 13.96875 -18.660156 13.4375 -18.984375 C 12.914062 -19.316406 12.265625 -19.570312 11.484375 -19.75 C 10.703125 -19.925781 9.765625 -19.976562 8.671875 -19.90625 L 7.0625 -19.78125 L 7.6875 -10.875 L 11.046875 -11.125 C 11.578125 -11.164062 11.984375 -11.296875 12.265625 -11.515625 C 12.546875 -11.742188 12.753906 -12.003906 12.890625 -12.296875 C 13.023438 -12.597656 13.101562 -12.875 13.125 -13.125 C 13.15625 -13.382812 13.164062 -13.582031 13.15625 -13.71875 L 13.15625 -13.828125 L 13.359375 -13.84375 L 13.734375 -8.546875 L 13.53125 -8.53125 L 13.53125 -8.640625 C 13.519531 -8.773438 13.476562 -8.96875 13.40625 -9.21875 C 13.34375 -9.476562 13.222656 -9.742188 13.046875 -10.015625 C 12.878906 -10.285156 12.640625 -10.507812 12.328125 -10.6875 C 12.015625 -10.863281 11.59375 -10.941406 11.0625 -10.921875 L 7.703125 -10.671875 L 8.25 -3.203125 C 8.300781 -2.460938 8.578125 -1.894531 9.078125 -1.5 C 9.578125 -1.113281 10.238281 -0.945312 11.0625 -1 C 13 -1.144531 14.582031 -1.671875 15.8125 -2.578125 C 17.050781 -3.484375 17.878906 -4.769531 18.296875 -6.4375 L 18.5 -6.453125 L 17.390625 -1.265625 L 1.125 -0.078125 Z M 1.109375 -0.28125 "/></g></g></g><g fill="#000000" fill-opacity="1"><g transform="translate(184.54574, 39.871545)"><g/></g></g><g fill="#000000" fill-opacity="1"><g transform="translate(197.410756, 40.009126)"><g><path d="M 11.4375 1.875 C 10.5 1.738281 9.59375 1.441406 8.71875 0.984375 C 7.851562 0.523438 7.078125 -0.046875 6.390625 -0.734375 C 5.710938 -1.429688 5.207031 -2.203125 4.875 -3.046875 C 4.539062 -3.898438 4.441406 -4.78125 4.578125 -5.6875 L 6.140625 -16.09375 C 6.253906 -16.832031 6.117188 -17.441406 5.734375 -17.921875 C 5.359375 -18.410156 4.769531 -18.710938 3.96875 -18.828125 L 4 -19.03125 L 13.609375 -17.59375 L 13.578125 -17.390625 C 12.753906 -17.515625 12.097656 -17.40625 11.609375 -17.0625 C 11.117188 -16.71875 10.828125 -16.21875 10.734375 -15.5625 L 9.390625 -6.6875 C 9.296875 -6.050781 9.226562 -5.375 9.1875 -4.65625 C 9.15625 -3.9375 9.164062 -3.21875 9.21875 -2.5 C 9.28125 -1.789062 9.425781 -1.132812 9.65625 -0.53125 C 9.882812 0.0703125 10.210938 0.578125 10.640625 0.984375 C 11.078125 1.390625 11.640625 1.644531 12.328125 1.75 C 12.765625 1.8125 13.265625 1.816406 13.828125 1.765625 C 14.398438 1.722656 14.988281 1.601562 15.59375 1.40625 C 16.207031 1.207031 16.785156 0.910156 17.328125 0.515625 C 17.878906 0.128906 18.351562 -0.375 18.75 -1 C 19.15625 -1.625 19.425781 -2.390625 19.5625 -3.296875 L 21.15625 -13.953125 C 21.257812 -14.648438 21.117188 -15.234375 20.734375 -15.703125 C 20.347656 -16.171875 19.75 -16.460938 18.9375 -16.578125 L 18.96875 -16.78125 L 24.234375 -16 L 24.203125 -15.796875 C 23.421875 -15.910156 22.769531 -15.800781 22.25 -15.46875 C 21.738281 -15.132812 21.429688 -14.617188 21.328125 -13.921875 L 19.734375 -3.265625 C 19.523438 -1.878906 19.019531 -0.773438 18.21875 0.046875 C 17.414062 0.867188 16.414062 1.429688 15.21875 1.734375 C 14.03125 2.035156 12.769531 2.082031 11.4375 1.875 Z M 11.4375 1.875 "/></g></g></g><g fill="#000000" fill-opacity="1"><g transform="translate(219.061428, 43.218929)"><g><path d="M 8.703125 -14.25 L 8.46875 -14.703125 L 4.421875 -1.25 C 4.285156 -0.757812 4.269531 -0.335938 4.375 0.015625 C 4.476562 0.367188 4.644531 0.65625 4.875 0.875 C 5.113281 1.09375 5.347656 1.265625 5.578125 1.390625 C 5.804688 1.515625 5.988281 1.597656 6.125 1.640625 L 6.21875 1.671875 L 6.15625 1.859375 L 1.078125 0.328125 L 1.140625 0.140625 L 1.25 0.171875 C 1.363281 0.203125 1.550781 0.226562 1.8125 0.25 C 2.082031 0.28125 2.367188 0.265625 2.671875 0.203125 C 2.984375 0.148438 3.28125 0.00390625 3.5625 -0.234375 C 3.851562 -0.472656 4.078125 -0.832031 4.234375 -1.3125 L 8.265625 -14.703125 C 8.523438 -15.628906 8.503906 -16.363281 8.203125 -16.90625 C 7.910156 -17.445312 7.378906 -17.832031 6.609375 -18.0625 L 6.671875 -18.265625 L 12.734375 -16.4375 L 19.6875 -1.3125 L 22.5625 -10.875 C 22.726562 -11.457031 22.726562 -11.9375 22.5625 -12.3125 C 22.40625 -12.6875 22.1875 -12.984375 21.90625 -13.203125 C 21.632812 -13.421875 21.378906 -13.578125 21.140625 -13.671875 C 20.898438 -13.765625 20.78125 -13.8125 20.78125 -13.8125 L 20.828125 -14 L 25.9375 -12.46875 L 25.875 -12.265625 C 25.875 -12.265625 25.75 -12.289062 25.5 -12.34375 C 25.257812 -12.40625 24.957031 -12.421875 24.59375 -12.390625 C 24.238281 -12.359375 23.890625 -12.234375 23.546875 -12.015625 C 23.210938 -11.796875 22.945312 -11.394531 22.75 -10.8125 L 17.875 5.390625 L 17.671875 5.328125 Z M 8.703125 -14.25 "/></g></g></g><g fill="#000000" fill-opacity="1"><g transform="translate(239.780464, 49.712641)"><g><path d="M 1.109375 0.25 C 1.867188 0.570312 2.550781 0.628906 3.15625 0.421875 C 3.757812 0.222656 4.207031 -0.21875 4.5 -0.90625 L 10.078125 -14 C 10.367188 -14.6875 10.378906 -15.316406 10.109375 -15.890625 C 9.835938 -16.472656 9.320312 -16.925781 8.5625 -17.25 L 8.640625 -17.4375 L 17.828125 -13.53125 L 17.75 -13.34375 C 16.988281 -13.65625 16.304688 -13.707031 15.703125 -13.5 C 15.109375 -13.300781 14.664062 -12.859375 14.375 -12.171875 L 8.796875 0.921875 C 8.503906 1.609375 8.488281 2.238281 8.75 2.8125 C 9.019531 3.394531 9.535156 3.84375 10.296875 4.15625 L 10.21875 4.34375 L 1.03125 0.4375 Z M 1.109375 0.25 "/></g></g></g><g fill="#000000" fill-opacity="1"><g transform="translate(250.586748, 53.878683)"><g><path d="M 12.171875 -12.46875 C 12.265625 -13.238281 12.203125 -13.875 11.984375 -14.375 C 11.765625 -14.875 11.515625 -15.257812 11.234375 -15.53125 C 10.953125 -15.8125 10.742188 -15.992188 10.609375 -16.078125 L 10.515625 -16.125 L 10.625 -16.296875 L 18.5625 -11.75 L 18.453125 -11.578125 L 18.34375 -11.640625 C 18.257812 -11.691406 18.113281 -11.742188 17.90625 -11.796875 C 17.695312 -11.859375 17.472656 -11.867188 17.234375 -11.828125 C 17.003906 -11.796875 16.796875 -11.65625 16.609375 -11.40625 C 16.421875 -11.15625 16.296875 -10.734375 16.234375 -10.140625 L 15.078125 2.40625 L 23.84375 -3.890625 C 24.507812 -4.367188 25 -4.800781 25.3125 -5.1875 C 25.625 -5.570312 25.816406 -5.910156 25.890625 -6.203125 C 25.960938 -6.492188 25.957031 -6.738281 25.875 -6.9375 C 25.800781 -7.144531 25.703125 -7.3125 25.578125 -7.4375 C 25.453125 -7.5625 25.359375 -7.640625 25.296875 -7.671875 L 25.234375 -7.703125 L 25.34375 -7.875 L 29.96875 -5.25 L 29.859375 -5.078125 L 29.53125 -5.265625 C 29.289062 -5.359375 28.929688 -5.421875 28.453125 -5.453125 C 27.984375 -5.492188 27.378906 -5.40625 26.640625 -5.1875 C 25.910156 -4.96875 25.046875 -4.5 24.046875 -3.78125 L 15.046875 2.671875 L 10.484375 6 Z M 12.171875 -12.46875 "/></g></g></g><g fill="#000000" fill-opacity="1"><g transform="translate(271.120275, 65.733453)"><g><path d="M 1.015625 0.53125 C 1.660156 1.039062 2.300781 1.269531 2.9375 1.21875 C 3.570312 1.175781 4.117188 0.863281 4.578125 0.28125 L 13.3125 -10.953125 C 13.769531 -11.546875 13.941406 -12.15625 13.828125 -12.78125 C 13.710938 -13.40625 13.332031 -13.972656 12.6875 -14.484375 L 12.8125 -14.640625 L 24.890625 -5.25 L 22.421875 -0.84375 L 22.234375 -0.875 L 22.421875 -1.234375 C 22.523438 -1.441406 22.632812 -1.738281 22.75 -2.125 C 22.875 -2.507812 22.9375 -2.953125 22.9375 -3.453125 C 22.945312 -3.953125 22.863281 -4.5 22.6875 -5.09375 C 22.519531 -5.695312 22.207031 -6.328125 21.75 -6.984375 C 21.289062 -7.640625 20.628906 -8.300781 19.765625 -8.96875 L 18.484375 -9.96875 L 13 -2.9375 L 15.671875 -0.859375 C 16.085938 -0.546875 16.472656 -0.375 16.828125 -0.34375 C 17.179688 -0.320312 17.503906 -0.375 17.796875 -0.5 C 18.097656 -0.632812 18.34375 -0.789062 18.53125 -0.96875 C 18.726562 -1.144531 18.867188 -1.285156 18.953125 -1.390625 L 19.03125 -1.484375 L 19.1875 -1.359375 L 15.921875 2.84375 L 15.765625 2.71875 L 15.828125 2.625 C 15.910156 2.519531 16.007812 2.351562 16.125 2.125 C 16.25 1.894531 16.335938 1.617188 16.390625 1.296875 C 16.453125 0.984375 16.425781 0.65625 16.3125 0.3125 C 16.207031 -0.03125 15.953125 -0.367188 15.546875 -0.703125 L 12.875 -2.78125 L 8.265625 3.140625 C 7.804688 3.722656 7.632812 4.328125 7.75 4.953125 C 7.863281 5.585938 8.242188 6.15625 8.890625 6.65625 C 10.421875 7.851562 11.945312 8.523438 13.46875 8.671875 C 15 8.828125 16.476562 8.425781 17.90625 7.46875 L 18.0625 7.59375 L 13.765625 10.703125 L 0.890625 0.6875 Z M 1.015625 0.53125 "/></g></g></g><g fill="#000000" fill-opacity="1"><g transform="translate(286.433499, 77.423649)"><g><path d="M 0.921875 0.671875 C 1.515625 1.273438 2.109375 1.601562 2.703125 1.65625 C 3.304688 1.71875 3.90625 1.460938 4.5 0.890625 L 14.703125 -9.03125 C 15.078125 -9.40625 15.3125 -9.757812 15.40625 -10.09375 C 15.507812 -10.4375 15.523438 -10.757812 15.453125 -11.0625 C 15.390625 -11.363281 15.28125 -11.632812 15.125 -11.875 C 14.976562 -12.113281 14.847656 -12.289062 14.734375 -12.40625 L 14.546875 -12.59375 L 14.703125 -12.734375 L 21.5 -5.75 C 22.144531 -5.09375 22.695312 -4.398438 23.15625 -3.671875 C 23.613281 -2.941406 23.929688 -2.195312 24.109375 -1.4375 C 24.285156 -0.6875 24.28125 0.046875 24.09375 0.765625 C 23.90625 1.492188 23.488281 2.171875 22.84375 2.796875 C 22.132812 3.484375 21.367188 3.894531 20.546875 4.03125 C 19.722656 4.175781 18.894531 4.101562 18.0625 3.8125 C 17.226562 3.53125 16.441406 3.109375 15.703125 2.546875 C 16.398438 3.359375 16.867188 4.097656 17.109375 4.765625 C 17.347656 5.429688 17.378906 6.140625 17.203125 6.890625 C 17.035156 7.648438 16.65625 8.566406 16.0625 9.640625 C 15.488281 10.753906 15.085938 11.675781 14.859375 12.40625 C 14.640625 13.144531 14.601562 13.773438 14.75 14.296875 C 14.894531 14.828125 15.203125 15.332031 15.671875 15.8125 L 15.53125 15.953125 L 12.703125 13.046875 C 12.109375 12.441406 11.789062 11.609375 11.75 10.546875 C 11.707031 9.492188 12.078125 8.09375 12.859375 6.34375 C 13.253906 5.488281 13.601562 4.800781 13.90625 4.28125 C 14.21875 3.769531 14.453125 3.351562 14.609375 3.03125 C 14.765625 2.71875 14.828125 2.441406 14.796875 2.203125 C 14.773438 1.972656 14.625 1.710938 14.34375 1.421875 L 12.546875 -0.40625 L 7.71875 4.28125 C 7.144531 4.832031 6.851562 5.378906 6.84375 5.921875 C 6.832031 6.460938 7.125 7.035156 7.71875 7.640625 L 7.578125 7.78125 L 0.78125 0.8125 Z M 14.390625 1.15625 C 14.773438 1.539062 15.25 1.710938 15.8125 1.671875 C 16.382812 1.640625 17 1.429688 17.65625 1.046875 C 18.320312 0.671875 18.984375 0.160156 19.640625 -0.484375 C 20.296875 -1.117188 20.816406 -1.753906 21.203125 -2.390625 C 21.585938 -3.023438 21.800781 -3.625 21.84375 -4.1875 C 21.894531 -4.75 21.726562 -5.222656 21.34375 -5.609375 L 19.65625 -7.34375 L 12.703125 -0.578125 Z M 14.390625 1.15625 "/></g></g></g><g fill="#000000" fill-opacity="1"><g transform="translate(302.09005, 93.79294)"><g><path d="M 3.203125 3.328125 C 2.960938 2.535156 2.742188 1.941406 2.546875 1.546875 C 2.347656 1.148438 2.15625 0.894531 1.96875 0.78125 C 1.78125 0.675781 1.59375 0.65625 1.40625 0.71875 C 1.226562 0.789062 1.035156 0.90625 0.828125 1.0625 L 0.8125 1.078125 L 0.703125 0.921875 L 5.84375 -2.96875 L 5.953125 -2.8125 L 5.53125 -2.5 C 4.957031 -2.0625 4.5 -1.488281 4.15625 -0.78125 C 3.820312 -0.0703125 3.617188 0.691406 3.546875 1.515625 C 3.472656 2.335938 3.539062 3.15625 3.75 3.96875 C 3.957031 4.789062 4.3125 5.53125 4.8125 6.1875 C 5.46875 7.0625 6.109375 7.671875 6.734375 8.015625 C 7.359375 8.367188 7.953125 8.523438 8.515625 8.484375 C 9.085938 8.453125 9.597656 8.269531 10.046875 7.9375 C 10.460938 7.644531 10.742188 7.242188 10.890625 6.734375 C 11.046875 6.222656 11.113281 5.640625 11.09375 4.984375 C 11.082031 4.328125 11.023438 3.632812 10.921875 2.90625 C 10.816406 2.1875 10.71875 1.46875 10.625 0.75 C 10.53125 0.0390625 10.472656 -0.613281 10.453125 -1.21875 C 10.453125 -2.613281 10.539062 -3.769531 10.71875 -4.6875 C 10.894531 -5.601562 11.222656 -6.3125 11.703125 -6.8125 C 12.191406 -7.3125 12.890625 -7.671875 13.796875 -7.890625 C 14.617188 -8.085938 15.457031 -8.097656 16.3125 -7.921875 C 17.164062 -7.753906 17.96875 -7.425781 18.71875 -6.9375 C 19.476562 -6.445312 20.125 -5.847656 20.65625 -5.140625 C 20.90625 -4.804688 21.117188 -4.460938 21.296875 -4.109375 C 21.484375 -3.765625 21.617188 -3.40625 21.703125 -3.03125 C 21.753906 -2.820312 21.816406 -2.566406 21.890625 -2.265625 C 21.960938 -1.960938 22.054688 -1.675781 22.171875 -1.40625 C 22.296875 -1.144531 22.4375 -0.941406 22.59375 -0.796875 C 22.75 -0.648438 22.90625 -0.640625 23.0625 -0.765625 L 23.140625 -0.828125 L 23.265625 -0.65625 L 19.015625 2.5625 L 18.890625 2.390625 C 18.890625 2.390625 18.984375 2.300781 19.171875 2.125 C 19.367188 1.957031 19.609375 1.722656 19.890625 1.421875 C 20.179688 1.128906 20.460938 0.78125 20.734375 0.375 C 21.015625 -0.03125 21.238281 -0.460938 21.40625 -0.921875 C 21.582031 -1.390625 21.648438 -1.867188 21.609375 -2.359375 C 21.566406 -2.796875 21.453125 -3.238281 21.265625 -3.6875 C 21.078125 -4.144531 20.820312 -4.585938 20.5 -5.015625 C 19.976562 -5.703125 19.457031 -6.171875 18.9375 -6.421875 C 18.425781 -6.671875 17.925781 -6.742188 17.4375 -6.640625 C 16.945312 -6.546875 16.472656 -6.320312 16.015625 -5.96875 C 15.398438 -5.507812 15.015625 -4.890625 14.859375 -4.109375 C 14.710938 -3.335938 14.703125 -2.316406 14.828125 -1.046875 C 14.929688 0.046875 15.054688 1.050781 15.203125 1.96875 C 15.359375 2.882812 15.441406 3.734375 15.453125 4.515625 C 15.472656 5.296875 15.335938 6.03125 15.046875 6.71875 C 14.753906 7.40625 14.207031 8.050781 13.40625 8.65625 C 12.894531 9.039062 12.257812 9.328125 11.5 9.515625 C 10.738281 9.710938 10.039062 9.773438 9.40625 9.703125 C 8.726562 9.597656 8.066406 9.347656 7.421875 8.953125 C 6.773438 8.554688 6.171875 8.054688 5.609375 7.453125 C 5.046875 6.859375 4.554688 6.207031 4.140625 5.5 C 3.722656 4.789062 3.410156 4.066406 3.203125 3.328125 Z M 3.203125 3.328125 "/></g></g></g><g fill="#000000" fill-opacity="1"><g transform="translate(311.178786, 105.88876)"><g><path d="M 0.765625 0.84375 C 1.203125 1.539062 1.726562 1.976562 2.34375 2.15625 C 2.957031 2.332031 3.578125 2.222656 4.203125 1.828125 L 16.265625 -5.71875 C 16.898438 -6.125 17.269531 -6.640625 17.375 -7.265625 C 17.488281 -7.890625 17.328125 -8.550781 16.890625 -9.25 L 17.0625 -9.34375 L 22.359375 -0.875 L 22.1875 -0.78125 C 21.75 -1.476562 21.222656 -1.914062 20.609375 -2.09375 C 20.003906 -2.269531 19.382812 -2.15625 18.75 -1.75 L 6.6875 5.796875 C 6.0625 6.191406 5.691406 6.703125 5.578125 7.328125 C 5.460938 7.953125 5.625 8.613281 6.0625 9.3125 L 5.890625 9.421875 L 0.59375 0.953125 Z M 0.765625 0.84375 "/></g></g></g><g fill="#000000" fill-opacity="1"><g transform="translate(317.583349, 115.586916)"><g><path d="M 2.71875 5.125 C 3.082031 5.863281 3.554688 6.351562 4.140625 6.59375 C 4.722656 6.84375 5.347656 6.804688 6.015625 6.484375 L 20.984375 -0.78125 L 20.890625 -1 C 20.410156 -1.976562 19.894531 -2.757812 19.34375 -3.34375 C 18.800781 -3.9375 18.253906 -4.378906 17.703125 -4.671875 C 17.148438 -4.972656 16.625 -5.164062 16.125 -5.25 C 15.632812 -5.34375 15.1875 -5.367188 14.78125 -5.328125 C 14.382812 -5.296875 14.070312 -5.253906 13.84375 -5.203125 L 13.46875 -5.0625 L 13.453125 -5.28125 L 18.296875 -6.78125 L 26.046875 9.1875 L 21.875 12.0625 L 21.734375 11.953125 L 22.0625 11.703125 C 22.25 11.566406 22.476562 11.351562 22.75 11.0625 C 23.03125 10.769531 23.285156 10.394531 23.515625 9.9375 C 23.742188 9.488281 23.914062 8.960938 24.03125 8.359375 C 24.144531 7.753906 24.140625 7.050781 24.015625 6.25 C 23.890625 5.457031 23.585938 4.566406 23.109375 3.578125 L 23.015625 3.40625 L 8.046875 10.671875 C 7.378906 10.992188 6.957031 11.457031 6.78125 12.0625 C 6.613281 12.675781 6.710938 13.351562 7.078125 14.09375 L 6.890625 14.1875 L 2.53125 5.21875 Z M 2.71875 5.125 "/></g></g></g><g fill="#000000" fill-opacity="1"><g transform="translate(326.735266, 134.18615)"><g><path d="M 2.171875 6.140625 C 2.421875 6.910156 2.828125 7.457031 3.390625 7.78125 C 3.953125 8.101562 4.582031 8.15625 5.28125 7.9375 L 11.234375 6.03125 L 17.421875 -0.734375 C 18.617188 -2.066406 19.019531 -3.414062 18.625 -4.78125 L 18.828125 -4.84375 L 21.625 3.875 L 21.421875 3.9375 C 21.148438 3.132812 20.785156 2.726562 20.328125 2.71875 C 19.867188 2.71875 19.367188 3.015625 18.828125 3.609375 L 12.734375 10.328125 L 21.515625 12.03125 C 22.304688 12.1875 22.867188 12.070312 23.203125 11.6875 C 23.535156 11.3125 23.582031 10.71875 23.34375 9.90625 L 23.546875 9.84375 L 25.171875 14.9375 L 24.96875 15 C 24.675781 14.1875 24.222656 13.5625 23.609375 13.125 C 23.003906 12.6875 22.320312 12.394531 21.5625 12.25 L 12.515625 10.515625 L 6.703125 12.375 C 6.003906 12.59375 5.519531 12.992188 5.25 13.578125 C 4.976562 14.160156 4.96875 14.851562 5.21875 15.65625 L 5.03125 15.71875 L 1.984375 6.203125 Z M 2.171875 6.140625 "/></g></g></g></svg>